G04 ================== begin FILE IDENTIFICATION RECORD ==================*
G04 Layout Name:  Mures_Georgiana.brd*
G04 Film Name:    BOTTOM*
G04 File Format:  Gerber RS274X*
G04 File Origin:  Cadence Allegro 17.2-S025*
G04 Origin Date:  Sun Dec 10 16:37:40 2023*
G04 *
G04 Layer:  ETCH/BOTTOM*
G04 Layer:  PIN/BOTTOM*
G04 Layer:  VIA CLASS/BOTTOM*
G04 *
G04 Offset:    (0.00 0.00)*
G04 Mirror:    No*
G04 Mode:      Positive*
G04 Rotation:  0*
G04 FullContactRelief:  No*
G04 UndefLineWidth:     10.00*
G04 ================== end FILE IDENTIFICATION RECORD ====================*
%FSLAX25Y25*MOIN*%
%IR0*IPPOS*OFA0.00000B0.00000*MIA0B0*SFA1.00000B1.00000*%
%ADD10C,.026*%
%ADD11C,.02*%
G75*
%LPD*%
G75*
G54D10*
X8300Y85700D03*
X31100Y28700D03*
Y103600D03*
X54900Y103700D03*
X55100Y133700D03*
X80000Y70800D03*
X88700Y113500D03*
X75700Y95300D03*
X90700Y107400D03*
X92600Y133100D03*
X101000Y55600D03*
X106900Y35900D03*
X105200Y79500D03*
X123500Y113400D03*
X122400Y106400D03*
X108700Y145900D03*
Y128400D03*
X133200Y92500D03*
X141000Y84300D03*
X145800Y70400D03*
G54D11*
G01X8300Y85700D02*
Y11500D01*
X12400Y7400D01*
X147400D01*
X151500Y11500D01*
Y102800D01*
X147900Y106400D01*
X122400D01*
G01X31100Y28700D02*
Y103600D01*
G01X106900Y35900D02*
X38300D01*
X31100Y28700D01*
G01X54900Y103700D02*
X34000D01*
X33900Y103600D01*
X31100D01*
G01X55100Y133700D02*
Y106700D01*
X54900Y106500D01*
Y103700D01*
G01X90700Y107400D02*
X81400D01*
X55100Y133700D01*
G01X80000Y70800D02*
Y91000D01*
X75700Y95300D01*
G01X88700Y113500D02*
Y129200D01*
X92600Y133100D01*
G01X101000Y55600D02*
X112300D01*
X141000Y84300D01*
G01X106900Y35900D02*
X141400Y70400D01*
X145800D01*
G01X105200Y79500D02*
X120200D01*
X133200Y92500D01*
G01X123500Y113400D02*
X121520Y115380D01*
Y115580D01*
X108700Y128400D01*
G01Y145900D02*
Y128400D01*
M02*
