M48
INCH,TZ
T01C.016
;LEADER: 12 
;HEADER: 
;CODE  : ASCII 
;FILE  : DRILL-1-2.drl for  ... layers TOP and BOTTOM
;DESIGN: Mures_Georgiana.brd
;T01 Holesize 1. = 16.000000 Tolerance = +0.000000/-0.000000 PLATED MILS Quantity = 20
%
G90
T01
X31100Y103600
Y28700
X54900Y103700
X55100Y133700
X90700Y107400
X145800Y70400
X106900Y35900
X122400Y106400
X8300Y85700
X75700Y95300
X80000Y70800
X141000Y84300
X101000Y55600
X92600Y133100
X88700Y113500
X108700Y128400
Y145900
X123500Y113400
X133200Y92500
X105200Y79500
M30
