G04 ================== begin FILE IDENTIFICATION RECORD ==================*
G04 Layout Name:  Mures_Georgiana.brd*
G04 Film Name:    FAB*
G04 File Format:  Gerber RS274X*
G04 File Origin:  Cadence Allegro 17.2-S025*
G04 Origin Date:  Sun Dec 10 16:37:40 2023*
G04 *
G04 Layer:  MANUFACTURING/XSECTION_CHART*
G04 Layer:  MANUFACTURING/NCLEGEND-1-2*
G04 Layer:  MANUFACTURING/NCDRILL_LEGEND*
G04 Layer:  MANUFACTURING/NCDRILL_FIGURE*
G04 Layer:  DRAWING FORMAT/DRAWING_ORIGIN*
G04 Layer:  BOARD GEOMETRY/OUTLINE*
G04 Layer:  BOARD GEOMETRY/DIMENSION*
G04 Layer:  BOARD GEOMETRY/DESIGN_OUTLINE*
G04 Layer:  BOARD GEOMETRY/CUTOUT*
G04 *
G04 Offset:    (0.00 0.00)*
G04 Mirror:    No*
G04 Mode:      Positive*
G04 Rotation:  0*
G04 FullContactRelief:  No*
G04 UndefLineWidth:     10.00*
G04 ================== end FILE IDENTIFICATION RECORD ====================*
%FSLAX25Y25*MOIN*%
%IR0*IPPOS*OFA0.00000B0.00000*MIA0B0*SFA1.00000B1.00000*%
%AMMACRO10*
1,1,.01,.025,0.0*
20,1,.01,.025,0.0,-.025,0.0,0.0*
1,1,.01,-.025,0.0*
1,1,.01,0.0,.025*
20,1,.01,0.0,.025,0.0,-.025,0.0*
1,1,.01,0.0,-.025*
%
%ADD10MACRO10*%
%AMMACRO11*
1,1,.01,.025,0.0*
20,1,.01,.025,0.0,.02462,-.004341,0.0*
1,1,.01,.02462,-.004341*
20,1,.01,.02462,-.004341,.023492,-.008551,0.0*
1,1,.01,.023492,-.008551*
20,1,.01,.023492,-.008551,.021651,-.0125,0.0*
1,1,.01,.021651,-.0125*
20,1,.01,.021651,-.0125,.019151,-.01607,0.0*
1,1,.01,.019151,-.01607*
20,1,.01,.019151,-.01607,.01607,-.019151,0.0*
1,1,.01,.01607,-.019151*
20,1,.01,.01607,-.019151,.0125,-.021651,0.0*
1,1,.01,.0125,-.021651*
20,1,.01,.0125,-.021651,.008551,-.023492,0.0*
1,1,.01,.008551,-.023492*
20,1,.01,.008551,-.023492,.004341,-.02462,0.0*
1,1,.01,.004341,-.02462*
20,1,.01,.004341,-.02462,0.0,-.025,0.0*
1,1,.01,0.0,-.025*
20,1,.01,0.0,-.025,-.004341,-.02462,0.0*
1,1,.01,-.004341,-.02462*
20,1,.01,-.004341,-.02462,-.008551,-.023492,0.0*
1,1,.01,-.008551,-.023492*
20,1,.01,-.008551,-.023492,-.0125,-.021651,0.0*
1,1,.01,-.0125,-.021651*
20,1,.01,-.0125,-.021651,-.01607,-.019151,0.0*
1,1,.01,-.01607,-.019151*
20,1,.01,-.01607,-.019151,-.019151,-.01607,0.0*
1,1,.01,-.019151,-.01607*
20,1,.01,-.019151,-.01607,-.021651,-.0125,0.0*
1,1,.01,-.021651,-.0125*
20,1,.01,-.021651,-.0125,-.023492,-.008551,0.0*
1,1,.01,-.023492,-.008551*
20,1,.01,-.023492,-.008551,-.02462,-.004341,0.0*
1,1,.01,-.02462,-.004341*
20,1,.01,-.02462,-.004341,-.025,0.0,0.0*
1,1,.01,-.025,0.0*
20,1,.01,-.025,0.0,-.02462,.004341,0.0*
1,1,.01,-.02462,.004341*
20,1,.01,-.02462,.004341,-.023492,.008551,0.0*
1,1,.01,-.023492,.008551*
20,1,.01,-.023492,.008551,-.021651,.0125,0.0*
1,1,.01,-.021651,.0125*
20,1,.01,-.021651,.0125,-.019151,.01607,0.0*
1,1,.01,-.019151,.01607*
20,1,.01,-.019151,.01607,-.01607,.019151,0.0*
1,1,.01,-.01607,.019151*
20,1,.01,-.01607,.019151,-.0125,.021651,0.0*
1,1,.01,-.0125,.021651*
20,1,.01,-.0125,.021651,-.008551,.023492,0.0*
1,1,.01,-.008551,.023492*
20,1,.01,-.008551,.023492,-.004341,.02462,0.0*
1,1,.01,-.004341,.02462*
20,1,.01,-.004341,.02462,0.0,.025,0.0*
1,1,.01,0.0,.025*
20,1,.01,0.0,.025,.004341,.02462,0.0*
1,1,.01,.004341,.02462*
20,1,.01,.004341,.02462,.008551,.023492,0.0*
1,1,.01,.008551,.023492*
20,1,.01,.008551,.023492,.0125,.021651,0.0*
1,1,.01,.0125,.021651*
20,1,.01,.0125,.021651,.01607,.019151,0.0*
1,1,.01,.01607,.019151*
20,1,.01,.01607,.019151,.019151,.01607,0.0*
1,1,.01,.019151,.01607*
20,1,.01,.019151,.01607,.021651,.0125,0.0*
1,1,.01,.021651,.0125*
20,1,.01,.021651,.0125,.023492,.008551,0.0*
1,1,.01,.023492,.008551*
20,1,.01,.023492,.008551,.02462,.004341,0.0*
1,1,.01,.02462,.004341*
20,1,.01,.02462,.004341,.025,0.0,0.0*
1,1,.01,.025,0.0*
1,1,.01,.0125,0.0*
20,1,.01,.0125,0.0,-.0125,0.0,0.0*
1,1,.01,-.0125,0.0*
1,1,.01,0.0,.0125*
20,1,.01,0.0,.0125,0.0,-.0125,0.0*
1,1,.01,0.0,-.0125*
%
%ADD11MACRO11*%
%ADD12C,.005*%
%ADD13C,.01*%
G75*
%LPD*%
G75*
G36*
G01X318800Y208997D02*
Y204658D01*
X321300D01*
Y14937D01*
X318800D01*
Y10598D01*
X333800D01*
Y14937D01*
X331300D01*
Y204658D01*
X333800D01*
Y208997D01*
X318800D01*
G37*
G36*
G01X298800Y10599D02*
Y14938D01*
X358800D01*
Y10599D01*
X298800D01*
G37*
G36*
G01Y204658D02*
Y208997D01*
X358800D01*
Y204658D01*
X298800D01*
G37*
G54D10*
X0Y0D03*
G54D11*
X8300Y85700D03*
X-2850Y272400D03*
X31100Y28700D03*
Y103600D03*
X54900Y103700D03*
X55100Y133700D03*
X80000Y70800D03*
X88700Y113500D03*
X75700Y95300D03*
X90700Y107400D03*
X92600Y133100D03*
X101000Y55600D03*
X106900Y35900D03*
X105200Y79500D03*
X123500Y113400D03*
X122400Y106400D03*
X108700Y145900D03*
Y128400D03*
X133200Y92500D03*
X141000Y84300D03*
X145800Y70400D03*
G54D12*
G01X300713Y1183D02*
Y3683D01*
X301247D01*
X301460Y3558D01*
X301620Y3391D01*
X301753Y3141D01*
X301860Y2850D01*
X301887Y2433D01*
X301860Y2016D01*
X301753Y1725D01*
X301620Y1475D01*
X301460Y1308D01*
X301247Y1183D01*
X300713D01*
G01X304033D02*
X302967D01*
Y3683D01*
X304033D01*
G01X303607Y2475D02*
X302967D01*
G01X305140Y1516D02*
X305353Y1308D01*
X305593Y1183D01*
X305807D01*
X306020Y1308D01*
X306180Y1516D01*
X306260Y1808D01*
X306207Y2100D01*
X306073Y2350D01*
X305833Y2516D01*
X305513Y2600D01*
X305327Y2766D01*
X305247Y3058D01*
X305300Y3350D01*
X305433Y3558D01*
X305620Y3683D01*
X305807D01*
X305993Y3600D01*
X306153Y3391D01*
G01X307580Y3683D02*
X308220D01*
G01X307900D02*
Y1183D01*
G01X307580D02*
X308220D01*
G01X310260Y2433D02*
X310793D01*
Y1683D01*
X310633Y1433D01*
X310447Y1266D01*
X310180Y1183D01*
X309913Y1266D01*
X309727Y1433D01*
X309567Y1683D01*
X309460Y1975D01*
X309407Y2308D01*
Y2600D01*
X309460Y2850D01*
X309567Y3141D01*
X309727Y3391D01*
X309887Y3558D01*
X310100Y3683D01*
X310287D01*
X310500Y3600D01*
X310660Y3433D01*
G01X311687Y1183D02*
Y3683D01*
X312913Y1183D01*
Y3683D01*
G01X317287Y3475D02*
X317127Y3600D01*
X316940Y3683D01*
X316727D01*
X316487Y3558D01*
X316300Y3350D01*
X316167Y3100D01*
X316060Y2683D01*
X316033Y2308D01*
X316087Y1933D01*
X316167Y1683D01*
X316327Y1433D01*
X316513Y1266D01*
X316700Y1183D01*
X316887D01*
X317073Y1266D01*
X317233Y1391D01*
X317367Y1558D01*
G01X318367Y1183D02*
Y3683D01*
X319033D01*
X319247Y3558D01*
X319380Y3391D01*
X319433Y3058D01*
X319380Y2725D01*
X319220Y2516D01*
X319033Y2391D01*
X318367D01*
G01X319033D02*
X319433Y1183D01*
G01X321100D02*
X320887Y1225D01*
X320700Y1391D01*
X320540Y1641D01*
X320433Y1933D01*
X320380Y2266D01*
Y2600D01*
X320433Y2933D01*
X320540Y3225D01*
X320700Y3475D01*
X320887Y3641D01*
X321100Y3683D01*
X321313Y3641D01*
X321500Y3475D01*
X321660Y3225D01*
X321767Y2933D01*
X321820Y2600D01*
Y2266D01*
X321767Y1933D01*
X321660Y1641D01*
X321500Y1391D01*
X321313Y1225D01*
X321100Y1183D01*
G01X322740Y1516D02*
X322953Y1308D01*
X323193Y1183D01*
X323407D01*
X323620Y1308D01*
X323780Y1516D01*
X323860Y1808D01*
X323807Y2100D01*
X323673Y2350D01*
X323433Y2516D01*
X323113Y2600D01*
X322927Y2766D01*
X322847Y3058D01*
X322900Y3350D01*
X323033Y3558D01*
X323220Y3683D01*
X323407D01*
X323593Y3600D01*
X323753Y3391D01*
G01X324940Y1516D02*
X325153Y1308D01*
X325393Y1183D01*
X325607D01*
X325820Y1308D01*
X325980Y1516D01*
X326060Y1808D01*
X326007Y2100D01*
X325873Y2350D01*
X325633Y2516D01*
X325313Y2600D01*
X325127Y2766D01*
X325047Y3058D01*
X325100Y3350D01*
X325233Y3558D01*
X325420Y3683D01*
X325607D01*
X325793Y3600D01*
X325953Y3391D01*
G01X329340Y1516D02*
X329553Y1308D01*
X329793Y1183D01*
X330007D01*
X330220Y1308D01*
X330380Y1516D01*
X330460Y1808D01*
X330407Y2100D01*
X330273Y2350D01*
X330033Y2516D01*
X329713Y2600D01*
X329527Y2766D01*
X329447Y3058D01*
X329500Y3350D01*
X329633Y3558D01*
X329820Y3683D01*
X330007D01*
X330193Y3600D01*
X330353Y3391D01*
G01X332633Y1183D02*
X331567D01*
Y3683D01*
X332633D01*
G01X332207Y2475D02*
X331567D01*
G01X334887Y3475D02*
X334727Y3600D01*
X334540Y3683D01*
X334327D01*
X334087Y3558D01*
X333900Y3350D01*
X333767Y3100D01*
X333660Y2683D01*
X333633Y2308D01*
X333687Y1933D01*
X333767Y1683D01*
X333927Y1433D01*
X334113Y1266D01*
X334300Y1183D01*
X334487D01*
X334673Y1266D01*
X334833Y1391D01*
X334967Y1558D01*
G01X336500Y3683D02*
Y1183D01*
G01X335887Y3683D02*
X337113D01*
G01X338380D02*
X339020D01*
G01X338700D02*
Y1183D01*
G01X338380D02*
X339020D01*
G01X340900D02*
X340687Y1225D01*
X340500Y1391D01*
X340340Y1641D01*
X340233Y1933D01*
X340180Y2266D01*
Y2600D01*
X340233Y2933D01*
X340340Y3225D01*
X340500Y3475D01*
X340687Y3641D01*
X340900Y3683D01*
X341113Y3641D01*
X341300Y3475D01*
X341460Y3225D01*
X341567Y2933D01*
X341620Y2600D01*
Y2266D01*
X341567Y1933D01*
X341460Y1641D01*
X341300Y1391D01*
X341113Y1225D01*
X340900Y1183D01*
G01X342487D02*
Y3683D01*
X343713Y1183D01*
Y3683D01*
G01X348087Y3475D02*
X347927Y3600D01*
X347740Y3683D01*
X347527D01*
X347287Y3558D01*
X347100Y3350D01*
X346967Y3100D01*
X346860Y2683D01*
X346833Y2308D01*
X346887Y1933D01*
X346967Y1683D01*
X347127Y1433D01*
X347313Y1266D01*
X347500Y1183D01*
X347687D01*
X347873Y1266D01*
X348033Y1391D01*
X348167Y1558D01*
G01X349140Y1183D02*
Y3683D01*
G01X350260D02*
Y1183D01*
G01Y2433D02*
X349140D01*
G01X351233Y1183D02*
X351900Y3683D01*
X352567Y1183D01*
G01X352327Y2058D02*
X351473D01*
G01X353567Y1183D02*
Y3683D01*
X354233D01*
X354447Y3558D01*
X354580Y3391D01*
X354633Y3058D01*
X354580Y2725D01*
X354420Y2516D01*
X354233Y2391D01*
X353567D01*
G01X354233D02*
X354633Y1183D01*
G01X356300Y3683D02*
Y1183D01*
G01X355687Y3683D02*
X356913D01*
G01X299400Y350D02*
X301000D01*
G01X301600D02*
X303200D01*
G01X303800D02*
X305400D01*
G01X306000D02*
X307600D01*
G01X308200D02*
X309800D01*
G01X310400D02*
X312000D01*
G01X312600D02*
X314200D01*
G01X314800D02*
X316400D01*
G01X317000D02*
X318600D01*
G01X319200D02*
X320800D01*
G01X321400D02*
X323000D01*
G01X323600D02*
X325200D01*
G01X325800D02*
X327400D01*
G01X328000D02*
X329600D01*
G01X330200D02*
X331800D01*
G01X332400D02*
X334000D01*
G01X334600D02*
X336200D01*
G01X336800D02*
X338400D01*
G01X339000D02*
X340600D01*
G01X341200D02*
X342800D01*
G01X343400D02*
X345000D01*
G01X345600D02*
X347200D01*
G01X347800D02*
X349400D01*
G01X350000D02*
X351600D01*
G01X352200D02*
X353800D01*
G01X354400D02*
X356000D01*
G01X356600D02*
X358200D01*
G01X305700Y-817D02*
Y-3317D01*
G01X305087Y-817D02*
X306313D01*
G01X307900Y-3317D02*
X307687Y-3275D01*
X307500Y-3109D01*
X307340Y-2859D01*
X307233Y-2567D01*
X307180Y-2234D01*
Y-1900D01*
X307233Y-1567D01*
X307340Y-1275D01*
X307500Y-1025D01*
X307687Y-859D01*
X307900Y-817D01*
X308113Y-859D01*
X308300Y-1025D01*
X308460Y-1275D01*
X308567Y-1567D01*
X308620Y-1900D01*
Y-2234D01*
X308567Y-2567D01*
X308460Y-2859D01*
X308300Y-3109D01*
X308113Y-3275D01*
X307900Y-3317D01*
G01X310100Y-817D02*
Y-3317D01*
G01X309487Y-817D02*
X310713D01*
G01X311633Y-3317D02*
X312300Y-817D01*
X312967Y-3317D01*
G01X312727Y-2442D02*
X311873D01*
G01X313967Y-817D02*
Y-3317D01*
X315033D01*
G01X318900Y-817D02*
Y-3317D01*
G01X318287Y-817D02*
X319513D01*
G01X320540Y-3317D02*
Y-817D01*
G01X321660D02*
Y-3317D01*
G01Y-2067D02*
X320540D01*
G01X322980Y-817D02*
X323620D01*
G01X323300D02*
Y-3317D01*
G01X322980D02*
X323620D01*
G01X326087Y-1025D02*
X325927Y-900D01*
X325740Y-817D01*
X325527D01*
X325287Y-942D01*
X325100Y-1150D01*
X324967Y-1400D01*
X324860Y-1817D01*
X324833Y-2192D01*
X324887Y-2567D01*
X324967Y-2817D01*
X325127Y-3067D01*
X325313Y-3234D01*
X325500Y-3317D01*
X325687D01*
X325873Y-3234D01*
X326033Y-3109D01*
X326167Y-2942D01*
G01X327113Y-3317D02*
Y-817D01*
G01X328127D02*
X327113Y-2359D01*
G01X328287Y-3317D02*
X327567Y-1650D01*
G01X329287Y-3317D02*
Y-817D01*
X330513Y-3317D01*
Y-817D01*
G01X332633Y-3317D02*
X331567D01*
Y-817D01*
X332633D01*
G01X332207Y-2025D02*
X331567D01*
G01X333740Y-2984D02*
X333953Y-3192D01*
X334193Y-3317D01*
X334407D01*
X334620Y-3192D01*
X334780Y-2984D01*
X334860Y-2692D01*
X334807Y-2400D01*
X334673Y-2150D01*
X334433Y-1984D01*
X334113Y-1900D01*
X333927Y-1734D01*
X333847Y-1442D01*
X333900Y-1150D01*
X334033Y-942D01*
X334220Y-817D01*
X334407D01*
X334593Y-900D01*
X334753Y-1109D01*
G01X335940Y-2984D02*
X336153Y-3192D01*
X336393Y-3317D01*
X336607D01*
X336820Y-3192D01*
X336980Y-2984D01*
X337060Y-2692D01*
X337007Y-2400D01*
X336873Y-2150D01*
X336633Y-1984D01*
X336313Y-1900D01*
X336127Y-1734D01*
X336047Y-1442D01*
X336100Y-1150D01*
X336233Y-942D01*
X336420Y-817D01*
X336607D01*
X336793Y-900D01*
X336953Y-1109D01*
G01X340393Y-2275D02*
X340580Y-1984D01*
X340740Y-1817D01*
X340953Y-1734D01*
X341140Y-1817D01*
X341273Y-1984D01*
X341380Y-2234D01*
X341407Y-2525D01*
X341380Y-2775D01*
X341273Y-3025D01*
X341113Y-3234D01*
X340927Y-3317D01*
X340713Y-3234D01*
X340527Y-2984D01*
X340420Y-2609D01*
X340393Y-2192D01*
X340447Y-1650D01*
X340527Y-1359D01*
X340660Y-1067D01*
X340847Y-859D01*
X341033Y-817D01*
X341220Y-900D01*
X341353Y-1109D01*
G01X343420Y-3317D02*
Y-817D01*
X342433Y-2609D01*
X343767D01*
G01X346807Y-3317D02*
Y-817D01*
X347500Y-2900D01*
X348193Y-817D01*
Y-3317D01*
G01X349380Y-817D02*
X350020D01*
G01X349700D02*
Y-3317D01*
G01X349380D02*
X350020D01*
G01X351367Y-817D02*
Y-3317D01*
X352433D01*
G01X326300Y212297D02*
X323800D01*
X324300Y211977D01*
G01X326300D02*
Y212617D01*
G01X325467Y214150D02*
Y214844D01*
G01X324217Y216190D02*
X323967Y216350D01*
X323842Y216537D01*
X323800Y216750D01*
X323883Y217017D01*
X324092Y217204D01*
X324342Y217257D01*
X324592Y217230D01*
X324800Y217124D01*
X325217Y216590D01*
X325508Y216350D01*
X325925Y216190D01*
X326300Y216137D01*
Y217257D01*
G01X361267Y14105D02*
Y11605D01*
X362333D01*
G01X363493Y13688D02*
X363653Y13938D01*
X363840Y14063D01*
X364053Y14105D01*
X364320Y14022D01*
X364507Y13813D01*
X364560Y13563D01*
X364533Y13313D01*
X364427Y13105D01*
X363893Y12688D01*
X363653Y12397D01*
X363493Y11980D01*
X363440Y11605D01*
X364560D01*
G01X368613Y12938D02*
X368720Y13063D01*
X368800Y13272D01*
X368853Y13563D01*
X368800Y13813D01*
X368693Y13980D01*
X368507Y14105D01*
X367787D01*
Y11605D01*
X368667D01*
X368853Y11772D01*
X368960Y12022D01*
X369013Y12313D01*
X368960Y12605D01*
X368800Y12855D01*
X368613Y12938D01*
X367787D01*
G01X370600Y11605D02*
X370387Y11647D01*
X370200Y11813D01*
X370040Y12063D01*
X369933Y12355D01*
X369880Y12688D01*
Y13022D01*
X369933Y13355D01*
X370040Y13647D01*
X370200Y13897D01*
X370387Y14063D01*
X370600Y14105D01*
X370813Y14063D01*
X371000Y13897D01*
X371160Y13647D01*
X371267Y13355D01*
X371320Y13022D01*
Y12688D01*
X371267Y12355D01*
X371160Y12063D01*
X371000Y11813D01*
X370813Y11647D01*
X370600Y11605D01*
G01X372800Y14105D02*
Y11605D01*
G01X372187Y14105D02*
X373413D01*
G01X375000D02*
Y11605D01*
G01X374387Y14105D02*
X375613D01*
G01X377200Y11605D02*
X376987Y11647D01*
X376800Y11813D01*
X376640Y12063D01*
X376533Y12355D01*
X376480Y12688D01*
Y13022D01*
X376533Y13355D01*
X376640Y13647D01*
X376800Y13897D01*
X376987Y14063D01*
X377200Y14105D01*
X377413Y14063D01*
X377600Y13897D01*
X377760Y13647D01*
X377867Y13355D01*
X377920Y13022D01*
Y12688D01*
X377867Y12355D01*
X377760Y12063D01*
X377600Y11813D01*
X377413Y11647D01*
X377200Y11605D01*
G01X378707D02*
Y14105D01*
X379400Y12022D01*
X380093Y14105D01*
Y11605D01*
G01X384387Y13897D02*
X384227Y14022D01*
X384040Y14105D01*
X383827D01*
X383587Y13980D01*
X383400Y13772D01*
X383267Y13522D01*
X383160Y13105D01*
X383133Y12730D01*
X383187Y12355D01*
X383267Y12105D01*
X383427Y11855D01*
X383613Y11688D01*
X383800Y11605D01*
X383987D01*
X384173Y11688D01*
X384333Y11813D01*
X384467Y11980D01*
G01X386000Y11605D02*
X385787Y11647D01*
X385600Y11813D01*
X385440Y12063D01*
X385333Y12355D01*
X385280Y12688D01*
Y13022D01*
X385333Y13355D01*
X385440Y13647D01*
X385600Y13897D01*
X385787Y14063D01*
X386000Y14105D01*
X386213Y14063D01*
X386400Y13897D01*
X386560Y13647D01*
X386667Y13355D01*
X386720Y13022D01*
Y12688D01*
X386667Y12355D01*
X386560Y12063D01*
X386400Y11813D01*
X386213Y11647D01*
X386000Y11605D01*
G01X387587D02*
Y14105D01*
X388813Y11605D01*
Y14105D01*
G01X389813Y11605D02*
Y14105D01*
X390347D01*
X390560Y13980D01*
X390720Y13813D01*
X390853Y13563D01*
X390960Y13272D01*
X390987Y12855D01*
X390960Y12438D01*
X390853Y12147D01*
X390720Y11897D01*
X390560Y11730D01*
X390347Y11605D01*
X389813D01*
G01X392013Y14105D02*
Y12313D01*
X392120Y11938D01*
X392333Y11688D01*
X392600Y11605D01*
X392867Y11688D01*
X393080Y11938D01*
X393187Y12313D01*
Y14105D01*
G01X395387Y13897D02*
X395227Y14022D01*
X395040Y14105D01*
X394827D01*
X394587Y13980D01*
X394400Y13772D01*
X394267Y13522D01*
X394160Y13105D01*
X394133Y12730D01*
X394187Y12355D01*
X394267Y12105D01*
X394427Y11855D01*
X394613Y11688D01*
X394800Y11605D01*
X394987D01*
X395173Y11688D01*
X395333Y11813D01*
X395467Y11980D01*
G01X397000Y14105D02*
Y11605D01*
G01X396387Y14105D02*
X397613D01*
G01X399200Y11605D02*
X398987Y11647D01*
X398800Y11813D01*
X398640Y12063D01*
X398533Y12355D01*
X398480Y12688D01*
Y13022D01*
X398533Y13355D01*
X398640Y13647D01*
X398800Y13897D01*
X398987Y14063D01*
X399200Y14105D01*
X399413Y14063D01*
X399600Y13897D01*
X399760Y13647D01*
X399867Y13355D01*
X399920Y13022D01*
Y12688D01*
X399867Y12355D01*
X399760Y12063D01*
X399600Y11813D01*
X399413Y11647D01*
X399200Y11605D01*
G01X400867D02*
Y14105D01*
X401533D01*
X401747Y13980D01*
X401880Y13813D01*
X401933Y13480D01*
X401880Y13147D01*
X401720Y12938D01*
X401533Y12813D01*
X400867D01*
G01X401533D02*
X401933Y11605D01*
G01X405453Y12438D02*
X406147D01*
G01X410787Y13897D02*
X410627Y14022D01*
X410440Y14105D01*
X410227D01*
X409987Y13980D01*
X409800Y13772D01*
X409667Y13522D01*
X409560Y13105D01*
X409533Y12730D01*
X409587Y12355D01*
X409667Y12105D01*
X409827Y11855D01*
X410013Y11688D01*
X410200Y11605D01*
X410387D01*
X410573Y11688D01*
X410733Y11813D01*
X410867Y11980D01*
G01X412400Y11605D02*
X412187Y11647D01*
X412000Y11813D01*
X411840Y12063D01*
X411733Y12355D01*
X411680Y12688D01*
Y13022D01*
X411733Y13355D01*
X411840Y13647D01*
X412000Y13897D01*
X412187Y14063D01*
X412400Y14105D01*
X412613Y14063D01*
X412800Y13897D01*
X412960Y13647D01*
X413067Y13355D01*
X413120Y13022D01*
Y12688D01*
X413067Y12355D01*
X412960Y12063D01*
X412800Y11813D01*
X412613Y11647D01*
X412400Y11605D01*
G01X414067D02*
Y14105D01*
X414707D01*
X414920Y13980D01*
X415080Y13688D01*
X415133Y13355D01*
X415080Y13022D01*
X414947Y12772D01*
X414707Y12647D01*
X414067D01*
G01X416267Y11605D02*
Y14105D01*
X416907D01*
X417120Y13980D01*
X417280Y13688D01*
X417333Y13355D01*
X417280Y13022D01*
X417147Y12772D01*
X416907Y12647D01*
X416267D01*
G01X419533Y11605D02*
X418467D01*
Y14105D01*
X419533D01*
G01X419107Y12897D02*
X418467D01*
G01X420667Y11605D02*
Y14105D01*
X421333D01*
X421547Y13980D01*
X421680Y13813D01*
X421733Y13480D01*
X421680Y13147D01*
X421520Y12938D01*
X421333Y12813D01*
X420667D01*
G01X421333D02*
X421733Y11605D01*
G01X425600D02*
Y14105D01*
X425280Y13605D01*
G01Y11605D02*
X425920D01*
G01X427800Y11522D02*
X427747Y11563D01*
Y11647D01*
X427800Y11688D01*
X427853Y11647D01*
Y11563D01*
X427800Y11522D01*
G01X430320Y11605D02*
Y14105D01*
X429333Y12313D01*
X430667D01*
G01X433707Y11605D02*
Y14105D01*
X434400Y12022D01*
X435093Y14105D01*
Y11605D01*
G01X436280Y14105D02*
X436920D01*
G01X436600D02*
Y11605D01*
G01X436280D02*
X436920D01*
G01X438267Y14105D02*
Y11605D01*
X439333D01*
G01X365613Y7183D02*
X366787Y9016D01*
G01X366200Y9349D02*
Y6849D01*
G01X366787Y7183D02*
X365613Y9016D01*
G01X365400Y8099D02*
X367000D01*
G01X372240Y7599D02*
X372453Y7391D01*
X372693Y7266D01*
X372907D01*
X373120Y7391D01*
X373280Y7599D01*
X373360Y7891D01*
X373307Y8183D01*
X373173Y8433D01*
X372933Y8599D01*
X372613Y8683D01*
X372427Y8849D01*
X372347Y9141D01*
X372400Y9433D01*
X372533Y9641D01*
X372720Y9766D01*
X372907D01*
X373093Y9683D01*
X373253Y9474D01*
G01X374413Y9766D02*
Y7974D01*
X374520Y7599D01*
X374733Y7349D01*
X375000Y7266D01*
X375267Y7349D01*
X375480Y7599D01*
X375587Y7974D01*
Y9766D01*
G01X376667Y7266D02*
Y9766D01*
X377333D01*
X377547Y9641D01*
X377680Y9474D01*
X377733Y9141D01*
X377680Y8808D01*
X377520Y8599D01*
X377333Y8474D01*
X376667D01*
G01X377333D02*
X377733Y7266D01*
G01X378893D02*
Y9766D01*
X379907D01*
G01X379533Y8558D02*
X378893D01*
G01X380933Y7266D02*
X381600Y9766D01*
X382267Y7266D01*
G01X382027Y8141D02*
X381173D01*
G01X384387Y9558D02*
X384227Y9683D01*
X384040Y9766D01*
X383827D01*
X383587Y9641D01*
X383400Y9433D01*
X383267Y9183D01*
X383160Y8766D01*
X383133Y8391D01*
X383187Y8016D01*
X383267Y7766D01*
X383427Y7516D01*
X383613Y7349D01*
X383800Y7266D01*
X383987D01*
X384173Y7349D01*
X384333Y7474D01*
X384467Y7641D01*
G01X386533Y7266D02*
X385467D01*
Y9766D01*
X386533D01*
G01X386107Y8558D02*
X385467D01*
G01X390053Y8099D02*
X390747D01*
G01X394133Y7266D02*
X394800Y9766D01*
X395467Y7266D01*
G01X395227Y8141D02*
X394373D01*
G01X396680Y9766D02*
X397320D01*
G01X397000D02*
Y7266D01*
G01X396680D02*
X397320D01*
G01X398667D02*
Y9766D01*
X399333D01*
X399547Y9641D01*
X399680Y9474D01*
X399733Y9141D01*
X399680Y8808D01*
X399520Y8599D01*
X399333Y8474D01*
X398667D01*
G01X399333D02*
X399733Y7266D01*
G01X403600Y9766D02*
X403387Y9683D01*
X403227Y9474D01*
X403120Y9224D01*
X403040Y8891D01*
X403013Y8516D01*
X403040Y8141D01*
X403120Y7808D01*
X403227Y7558D01*
X403387Y7349D01*
X403600Y7266D01*
X403813Y7349D01*
X403973Y7558D01*
X404080Y7808D01*
X404160Y8141D01*
X404187Y8516D01*
X404160Y8891D01*
X404080Y9224D01*
X403973Y9474D01*
X403813Y9683D01*
X403600Y9766D01*
G01X407307Y7266D02*
Y9766D01*
X408000Y7683D01*
X408693Y9766D01*
Y7266D01*
G01X409880Y9766D02*
X410520D01*
G01X410200D02*
Y7266D01*
G01X409880D02*
X410520D01*
G01X411867Y9766D02*
Y7266D01*
X412933D01*
G01X365613Y109715D02*
X366787Y111548D01*
G01X366200Y111881D02*
Y109381D01*
G01X366787Y109715D02*
X365613Y111548D01*
G01X365400Y110631D02*
X367000D01*
G01X372213Y109798D02*
Y112298D01*
X372747D01*
X372960Y112173D01*
X373120Y112006D01*
X373253Y111756D01*
X373360Y111465D01*
X373387Y111048D01*
X373360Y110631D01*
X373253Y110340D01*
X373120Y110090D01*
X372960Y109923D01*
X372747Y109798D01*
X372213D01*
G01X374680Y112298D02*
X375320D01*
G01X375000D02*
Y109798D01*
G01X374680D02*
X375320D01*
G01X377733D02*
X376667D01*
Y112298D01*
X377733D01*
G01X377307Y111090D02*
X376667D01*
G01X378867Y112298D02*
Y109798D01*
X379933D01*
G01X382133D02*
X381067D01*
Y112298D01*
X382133D01*
G01X381707Y111090D02*
X381067D01*
G01X384387Y112090D02*
X384227Y112215D01*
X384040Y112298D01*
X383827D01*
X383587Y112173D01*
X383400Y111965D01*
X383267Y111715D01*
X383160Y111298D01*
X383133Y110923D01*
X383187Y110548D01*
X383267Y110298D01*
X383427Y110048D01*
X383613Y109881D01*
X383800Y109798D01*
X383987D01*
X384173Y109881D01*
X384333Y110006D01*
X384467Y110173D01*
G01X386000Y112298D02*
Y109798D01*
G01X385387Y112298D02*
X386613D01*
G01X387667Y109798D02*
Y112298D01*
X388333D01*
X388547Y112173D01*
X388680Y112006D01*
X388733Y111673D01*
X388680Y111340D01*
X388520Y111131D01*
X388333Y111006D01*
X387667D01*
G01X388333D02*
X388733Y109798D01*
G01X390080Y112298D02*
X390720D01*
G01X390400D02*
Y109798D01*
G01X390080D02*
X390720D01*
G01X393187Y112090D02*
X393027Y112215D01*
X392840Y112298D01*
X392627D01*
X392387Y112173D01*
X392200Y111965D01*
X392067Y111715D01*
X391960Y111298D01*
X391933Y110923D01*
X391987Y110548D01*
X392067Y110298D01*
X392227Y110048D01*
X392413Y109881D01*
X392600Y109798D01*
X392787D01*
X392973Y109881D01*
X393133Y110006D01*
X393267Y110173D01*
G01X396653Y110631D02*
X397347D01*
G01X400893Y109798D02*
Y112298D01*
X401907D01*
G01X401533Y111090D02*
X400893D01*
G01X403067Y109798D02*
Y112298D01*
X403733D01*
X403947Y112173D01*
X404080Y112006D01*
X404133Y111673D01*
X404080Y111340D01*
X403920Y111131D01*
X403733Y111006D01*
X403067D01*
G01X403733D02*
X404133Y109798D01*
G01X405453Y110631D02*
X406147D01*
G01X408320Y109798D02*
Y112298D01*
X407333Y110506D01*
X408667D01*
G01X411893Y110840D02*
X412080Y111131D01*
X412240Y111298D01*
X412453Y111381D01*
X412640Y111298D01*
X412773Y111131D01*
X412880Y110881D01*
X412907Y110590D01*
X412880Y110340D01*
X412773Y110090D01*
X412613Y109881D01*
X412427Y109798D01*
X412213Y109881D01*
X412027Y110131D01*
X411920Y110506D01*
X411893Y110923D01*
X411947Y111465D01*
X412027Y111756D01*
X412160Y112048D01*
X412347Y112256D01*
X412533Y112298D01*
X412720Y112215D01*
X412853Y112006D01*
G01X414600Y109798D02*
Y112298D01*
X414280Y111798D01*
G01Y109798D02*
X414920D01*
G01X416800Y109715D02*
X416747Y109756D01*
Y109840D01*
X416800Y109881D01*
X416853Y109840D01*
Y109756D01*
X416800Y109715D01*
G01X418493Y111881D02*
X418653Y112131D01*
X418840Y112256D01*
X419053Y112298D01*
X419320Y112215D01*
X419507Y112006D01*
X419560Y111756D01*
X419533Y111506D01*
X419427Y111298D01*
X418893Y110881D01*
X418653Y110590D01*
X418493Y110173D01*
X418440Y109798D01*
X419560D01*
G01X422707D02*
Y112298D01*
X423400Y110215D01*
X424093Y112298D01*
Y109798D01*
G01X425280Y112298D02*
X425920D01*
G01X425600D02*
Y109798D01*
G01X425280D02*
X425920D01*
G01X427267Y112298D02*
Y109798D01*
X428333D01*
G01X365613Y209747D02*
X366787Y211580D01*
G01X366200Y211913D02*
Y209413D01*
G01X366787Y209747D02*
X365613Y211580D01*
G01X365400Y210663D02*
X367000D01*
G01X372240Y210163D02*
X372453Y209955D01*
X372693Y209830D01*
X372907D01*
X373120Y209955D01*
X373280Y210163D01*
X373360Y210455D01*
X373307Y210747D01*
X373173Y210997D01*
X372933Y211163D01*
X372613Y211247D01*
X372427Y211413D01*
X372347Y211705D01*
X372400Y211997D01*
X372533Y212205D01*
X372720Y212330D01*
X372907D01*
X373093Y212247D01*
X373253Y212038D01*
G01X374413Y212330D02*
Y210538D01*
X374520Y210163D01*
X374733Y209913D01*
X375000Y209830D01*
X375267Y209913D01*
X375480Y210163D01*
X375587Y210538D01*
Y212330D01*
G01X376667Y209830D02*
Y212330D01*
X377333D01*
X377547Y212205D01*
X377680Y212038D01*
X377733Y211705D01*
X377680Y211372D01*
X377520Y211163D01*
X377333Y211038D01*
X376667D01*
G01X377333D02*
X377733Y209830D01*
G01X378893D02*
Y212330D01*
X379907D01*
G01X379533Y211122D02*
X378893D01*
G01X380933Y209830D02*
X381600Y212330D01*
X382267Y209830D01*
G01X382027Y210705D02*
X381173D01*
G01X384387Y212122D02*
X384227Y212247D01*
X384040Y212330D01*
X383827D01*
X383587Y212205D01*
X383400Y211997D01*
X383267Y211747D01*
X383160Y211330D01*
X383133Y210955D01*
X383187Y210580D01*
X383267Y210330D01*
X383427Y210080D01*
X383613Y209913D01*
X383800Y209830D01*
X383987D01*
X384173Y209913D01*
X384333Y210038D01*
X384467Y210205D01*
G01X386533Y209830D02*
X385467D01*
Y212330D01*
X386533D01*
G01X386107Y211122D02*
X385467D01*
G01X390053Y210663D02*
X390747D01*
G01X394133Y209830D02*
X394800Y212330D01*
X395467Y209830D01*
G01X395227Y210705D02*
X394373D01*
G01X396680Y212330D02*
X397320D01*
G01X397000D02*
Y209830D01*
G01X396680D02*
X397320D01*
G01X398667D02*
Y212330D01*
X399333D01*
X399547Y212205D01*
X399680Y212038D01*
X399733Y211705D01*
X399680Y211372D01*
X399520Y211163D01*
X399333Y211038D01*
X398667D01*
G01X399333D02*
X399733Y209830D01*
G01X403600Y212330D02*
X403387Y212247D01*
X403227Y212038D01*
X403120Y211788D01*
X403040Y211455D01*
X403013Y211080D01*
X403040Y210705D01*
X403120Y210372D01*
X403227Y210122D01*
X403387Y209913D01*
X403600Y209830D01*
X403813Y209913D01*
X403973Y210122D01*
X404080Y210372D01*
X404160Y210705D01*
X404187Y211080D01*
X404160Y211455D01*
X404080Y211788D01*
X403973Y212038D01*
X403813Y212247D01*
X403600Y212330D01*
G01X407307Y209830D02*
Y212330D01*
X408000Y210247D01*
X408693Y212330D01*
Y209830D01*
G01X409880Y212330D02*
X410520D01*
G01X410200D02*
Y209830D01*
G01X409880D02*
X410520D01*
G01X411867Y212330D02*
Y209830D01*
X412933D01*
G01X361267Y208164D02*
Y205664D01*
X362333D01*
G01X364000D02*
Y208164D01*
X363680Y207664D01*
G01Y205664D02*
X364320D01*
G01X368400Y208164D02*
Y205664D01*
G01X367787Y208164D02*
X369013D01*
G01X370600Y205664D02*
X370387Y205706D01*
X370200Y205872D01*
X370040Y206122D01*
X369933Y206414D01*
X369880Y206747D01*
Y207081D01*
X369933Y207414D01*
X370040Y207706D01*
X370200Y207956D01*
X370387Y208122D01*
X370600Y208164D01*
X370813Y208122D01*
X371000Y207956D01*
X371160Y207706D01*
X371267Y207414D01*
X371320Y207081D01*
Y206747D01*
X371267Y206414D01*
X371160Y206122D01*
X371000Y205872D01*
X370813Y205706D01*
X370600Y205664D01*
G01X372267D02*
Y208164D01*
X372907D01*
X373120Y208039D01*
X373280Y207747D01*
X373333Y207414D01*
X373280Y207081D01*
X373147Y206831D01*
X372907Y206706D01*
X372267D01*
G01X377787Y207956D02*
X377627Y208081D01*
X377440Y208164D01*
X377227D01*
X376987Y208039D01*
X376800Y207831D01*
X376667Y207581D01*
X376560Y207164D01*
X376533Y206789D01*
X376587Y206414D01*
X376667Y206164D01*
X376827Y205914D01*
X377013Y205747D01*
X377200Y205664D01*
X377387D01*
X377573Y205747D01*
X377733Y205872D01*
X377867Y206039D01*
G01X379400Y205664D02*
X379187Y205706D01*
X379000Y205872D01*
X378840Y206122D01*
X378733Y206414D01*
X378680Y206747D01*
Y207081D01*
X378733Y207414D01*
X378840Y207706D01*
X379000Y207956D01*
X379187Y208122D01*
X379400Y208164D01*
X379613Y208122D01*
X379800Y207956D01*
X379960Y207706D01*
X380067Y207414D01*
X380120Y207081D01*
Y206747D01*
X380067Y206414D01*
X379960Y206122D01*
X379800Y205872D01*
X379613Y205706D01*
X379400Y205664D01*
G01X380987D02*
Y208164D01*
X382213Y205664D01*
Y208164D01*
G01X383213Y205664D02*
Y208164D01*
X383747D01*
X383960Y208039D01*
X384120Y207872D01*
X384253Y207622D01*
X384360Y207331D01*
X384387Y206914D01*
X384360Y206497D01*
X384253Y206206D01*
X384120Y205956D01*
X383960Y205789D01*
X383747Y205664D01*
X383213D01*
G01X385413Y208164D02*
Y206372D01*
X385520Y205997D01*
X385733Y205747D01*
X386000Y205664D01*
X386267Y205747D01*
X386480Y205997D01*
X386587Y206372D01*
Y208164D01*
G01X388787Y207956D02*
X388627Y208081D01*
X388440Y208164D01*
X388227D01*
X387987Y208039D01*
X387800Y207831D01*
X387667Y207581D01*
X387560Y207164D01*
X387533Y206789D01*
X387587Y206414D01*
X387667Y206164D01*
X387827Y205914D01*
X388013Y205747D01*
X388200Y205664D01*
X388387D01*
X388573Y205747D01*
X388733Y205872D01*
X388867Y206039D01*
G01X390400Y208164D02*
Y205664D01*
G01X389787Y208164D02*
X391013D01*
G01X392600Y205664D02*
X392387Y205706D01*
X392200Y205872D01*
X392040Y206122D01*
X391933Y206414D01*
X391880Y206747D01*
Y207081D01*
X391933Y207414D01*
X392040Y207706D01*
X392200Y207956D01*
X392387Y208122D01*
X392600Y208164D01*
X392813Y208122D01*
X393000Y207956D01*
X393160Y207706D01*
X393267Y207414D01*
X393320Y207081D01*
Y206747D01*
X393267Y206414D01*
X393160Y206122D01*
X393000Y205872D01*
X392813Y205706D01*
X392600Y205664D01*
G01X394267D02*
Y208164D01*
X394933D01*
X395147Y208039D01*
X395280Y207872D01*
X395333Y207539D01*
X395280Y207206D01*
X395120Y206997D01*
X394933Y206872D01*
X394267D01*
G01X394933D02*
X395333Y205664D01*
G01X398853Y206497D02*
X399547D01*
G01X404187Y207956D02*
X404027Y208081D01*
X403840Y208164D01*
X403627D01*
X403387Y208039D01*
X403200Y207831D01*
X403067Y207581D01*
X402960Y207164D01*
X402933Y206789D01*
X402987Y206414D01*
X403067Y206164D01*
X403227Y205914D01*
X403413Y205747D01*
X403600Y205664D01*
X403787D01*
X403973Y205747D01*
X404133Y205872D01*
X404267Y206039D01*
G01X405800Y205664D02*
X405587Y205706D01*
X405400Y205872D01*
X405240Y206122D01*
X405133Y206414D01*
X405080Y206747D01*
Y207081D01*
X405133Y207414D01*
X405240Y207706D01*
X405400Y207956D01*
X405587Y208122D01*
X405800Y208164D01*
X406013Y208122D01*
X406200Y207956D01*
X406360Y207706D01*
X406467Y207414D01*
X406520Y207081D01*
Y206747D01*
X406467Y206414D01*
X406360Y206122D01*
X406200Y205872D01*
X406013Y205706D01*
X405800Y205664D01*
G01X407467D02*
Y208164D01*
X408107D01*
X408320Y208039D01*
X408480Y207747D01*
X408533Y207414D01*
X408480Y207081D01*
X408347Y206831D01*
X408107Y206706D01*
X407467D01*
G01X409667Y205664D02*
Y208164D01*
X410307D01*
X410520Y208039D01*
X410680Y207747D01*
X410733Y207414D01*
X410680Y207081D01*
X410547Y206831D01*
X410307Y206706D01*
X409667D01*
G01X412933Y205664D02*
X411867D01*
Y208164D01*
X412933D01*
G01X412507Y206956D02*
X411867D01*
G01X414067Y205664D02*
Y208164D01*
X414733D01*
X414947Y208039D01*
X415080Y207872D01*
X415133Y207539D01*
X415080Y207206D01*
X414920Y206997D01*
X414733Y206872D01*
X414067D01*
G01X414733D02*
X415133Y205664D01*
G01X419000D02*
Y208164D01*
X418680Y207664D01*
G01Y205664D02*
X419320D01*
G01X421200Y205581D02*
X421147Y205622D01*
Y205706D01*
X421200Y205747D01*
X421253Y205706D01*
Y205622D01*
X421200Y205581D01*
G01X423720Y205664D02*
Y208164D01*
X422733Y206372D01*
X424067D01*
G01X427107Y205664D02*
Y208164D01*
X427800Y206081D01*
X428493Y208164D01*
Y205664D01*
G01X429680Y208164D02*
X430320D01*
G01X430000D02*
Y205664D01*
G01X429680D02*
X430320D01*
G01X431667Y208164D02*
Y205664D01*
X432733D01*
G54D13*
G01X-10000Y0D02*
X-53300D01*
G01X-61900Y75950D02*
Y88450D01*
X-63760Y85950D01*
G01Y75950D02*
X-60040D01*
G01X-52445Y81158D02*
X-51360Y82617D01*
X-50430Y83450D01*
X-49190Y83867D01*
X-48105Y83450D01*
X-47330Y82617D01*
X-46710Y81367D01*
X-46555Y79908D01*
X-46710Y78658D01*
X-47330Y77408D01*
X-48260Y76367D01*
X-49345Y75950D01*
X-50585Y76367D01*
X-51670Y77616D01*
X-52290Y79492D01*
X-52445Y81575D01*
X-52135Y84283D01*
X-51670Y85742D01*
X-50895Y87200D01*
X-49810Y88242D01*
X-48725Y88450D01*
X-47640Y88033D01*
X-46865Y86992D01*
G01X-37100Y88450D02*
X-38340Y88033D01*
X-39270Y86992D01*
X-39890Y85742D01*
X-40355Y84075D01*
X-40510Y82200D01*
X-40355Y80325D01*
X-39890Y78658D01*
X-39270Y77408D01*
X-38340Y76367D01*
X-37100Y75950D01*
X-35860Y76367D01*
X-34930Y77408D01*
X-34310Y78658D01*
X-33845Y80325D01*
X-33690Y82200D01*
X-33845Y84075D01*
X-34310Y85742D01*
X-34930Y86992D01*
X-35860Y88033D01*
X-37100Y88450D01*
G01X-24700D02*
X-25940Y88033D01*
X-26870Y86992D01*
X-27490Y85742D01*
X-27955Y84075D01*
X-28110Y82200D01*
X-27955Y80325D01*
X-27490Y78658D01*
X-26870Y77408D01*
X-25940Y76367D01*
X-24700Y75950D01*
X-23460Y76367D01*
X-22530Y77408D01*
X-21910Y78658D01*
X-21445Y80325D01*
X-21290Y82200D01*
X-21445Y84075D01*
X-21910Y85742D01*
X-22530Y86992D01*
X-23460Y88033D01*
X-24700Y88450D01*
G01X-10000Y160000D02*
X-53300D01*
G01X-43300Y66575D02*
Y0D01*
G01X-45800Y15000D02*
X-43300Y0D01*
X-40800Y15000D01*
X-45800D01*
G01X-43300Y97825D02*
Y160000D01*
G01X-40800Y145000D02*
X-43300Y160000D01*
X-45800Y145000D01*
X-40800D01*
G01X-47800Y259900D02*
Y359900D01*
X448200D01*
Y259900D01*
X-47800D01*
G01X-36795Y291150D02*
Y303650D01*
X-30905D01*
G01X-33075Y297608D02*
X-36795D01*
G01X-23310Y303650D02*
X-19590D01*
G01X-21450D02*
Y291150D01*
G01X-23310D02*
X-19590D01*
G01X-8120Y297400D02*
X-5020D01*
Y293650D01*
X-5950Y292400D01*
X-7035Y291567D01*
X-8585Y291150D01*
X-10135Y291567D01*
X-11220Y292400D01*
X-12150Y293650D01*
X-12770Y295108D01*
X-13080Y296775D01*
Y298233D01*
X-12770Y299483D01*
X-12150Y300942D01*
X-11220Y302192D01*
X-10290Y303025D01*
X-9050Y303650D01*
X-7965D01*
X-6725Y303233D01*
X-5795Y302400D01*
G01X-60Y303650D02*
Y294692D01*
X560Y292816D01*
X1800Y291567D01*
X3350Y291150D01*
X4900Y291567D01*
X6140Y292816D01*
X6760Y294692D01*
Y303650D01*
G01X12650Y291150D02*
Y303650D01*
X16525D01*
X17765Y303025D01*
X18540Y302192D01*
X18850Y300525D01*
X18540Y298858D01*
X17610Y297817D01*
X16525Y297192D01*
X12650D01*
G01X16525D02*
X18850Y291150D01*
G01X31250D02*
X25050D01*
Y303650D01*
X31250D01*
G01X28770Y297608D02*
X25050D01*
G01X-47800Y284900D02*
X448200D01*
G01X-47800Y309900D02*
X448200D01*
G01X-47800Y334900D02*
X448200D01*
G01X0Y0D02*
Y160000D01*
X160000D01*
Y0D01*
X0D01*
G01Y170000D02*
Y195800D01*
G01X47075Y185800D02*
X0D01*
G01X15000Y188300D02*
X0Y185800D01*
X15000Y183300D01*
Y188300D01*
G01X61100Y179550D02*
Y192050D01*
X59240Y189550D01*
G01Y179550D02*
X62960D01*
G01X70555Y184758D02*
X71640Y186217D01*
X72570Y187050D01*
X73810Y187467D01*
X74895Y187050D01*
X75670Y186217D01*
X76290Y184967D01*
X76445Y183508D01*
X76290Y182258D01*
X75670Y181008D01*
X74740Y179967D01*
X73655Y179550D01*
X72415Y179967D01*
X71330Y181216D01*
X70710Y183092D01*
X70555Y185175D01*
X70865Y187883D01*
X71330Y189342D01*
X72105Y190800D01*
X73190Y191842D01*
X74275Y192050D01*
X75360Y191633D01*
X76135Y190592D01*
G01X85900Y192050D02*
X84660Y191633D01*
X83730Y190592D01*
X83110Y189342D01*
X82645Y187675D01*
X82490Y185800D01*
X82645Y183925D01*
X83110Y182258D01*
X83730Y181008D01*
X84660Y179967D01*
X85900Y179550D01*
X87140Y179967D01*
X88070Y181008D01*
X88690Y182258D01*
X89155Y183925D01*
X89310Y185800D01*
X89155Y187675D01*
X88690Y189342D01*
X88070Y190592D01*
X87140Y191633D01*
X85900Y192050D01*
G01X98300D02*
X97060Y191633D01*
X96130Y190592D01*
X95510Y189342D01*
X95045Y187675D01*
X94890Y185800D01*
X95045Y183925D01*
X95510Y182258D01*
X96130Y181008D01*
X97060Y179967D01*
X98300Y179550D01*
X99540Y179967D01*
X100470Y181008D01*
X101090Y182258D01*
X101555Y183925D01*
X101710Y185800D01*
X101555Y187675D01*
X101090Y189342D01*
X100470Y190592D01*
X99540Y191633D01*
X98300Y192050D01*
G01X42100Y309900D02*
Y259900D01*
G01X65505Y291150D02*
Y303650D01*
X71395D01*
G01X69225Y297608D02*
X65505D01*
G01X78990Y303650D02*
X82710D01*
G01X80850D02*
Y291150D01*
G01X78990D02*
X82710D01*
G01X89685D02*
Y303650D01*
X96815Y291150D01*
Y303650D01*
G01X103790D02*
X107510D01*
G01X105650D02*
Y291150D01*
G01X103790D02*
X107510D01*
G01X114795Y292816D02*
X116035Y291775D01*
X117430Y291150D01*
X118670D01*
X119910Y291775D01*
X120840Y292816D01*
X121305Y294275D01*
X120995Y295733D01*
X120220Y296983D01*
X118825Y297817D01*
X116965Y298233D01*
X115880Y299067D01*
X115415Y300525D01*
X115725Y301983D01*
X116500Y303025D01*
X117585Y303650D01*
X118670D01*
X119755Y303233D01*
X120685Y302192D01*
G01X127195Y291150D02*
Y303650D01*
G01X133705D02*
Y291150D01*
G01Y297400D02*
X127195D01*
G01X145950Y291150D02*
X139750D01*
Y303650D01*
X145950D01*
G01X143470Y297608D02*
X139750D01*
G01X151840Y291150D02*
Y303650D01*
X154940D01*
X156180Y303025D01*
X157110Y302192D01*
X157885Y300942D01*
X158505Y299483D01*
X158660Y297400D01*
X158505Y295317D01*
X157885Y293858D01*
X157110Y292608D01*
X156180Y291775D01*
X154940Y291150D01*
X151840D01*
G01X163000Y286983D02*
X172300D01*
G01X176795Y292816D02*
X178035Y291775D01*
X179430Y291150D01*
X180670D01*
X181910Y291775D01*
X182840Y292816D01*
X183305Y294275D01*
X182995Y295733D01*
X182220Y296983D01*
X180825Y297817D01*
X178965Y298233D01*
X177880Y299067D01*
X177415Y300525D01*
X177725Y301983D01*
X178500Y303025D01*
X179585Y303650D01*
X180670D01*
X181755Y303233D01*
X182685Y302192D01*
G01X190590Y303650D02*
X194310D01*
G01X192450D02*
Y291150D01*
G01X190590D02*
X194310D01*
G01X201905Y303650D02*
X207795D01*
X201905Y291150D01*
X207795D01*
G01X220350D02*
X214150D01*
Y303650D01*
X220350D01*
G01X217870Y297608D02*
X214150D01*
G01X41790Y341150D02*
Y353650D01*
X44890D01*
X46130Y353025D01*
X47060Y352192D01*
X47835Y350942D01*
X48455Y349483D01*
X48610Y347400D01*
X48455Y345317D01*
X47835Y343858D01*
X47060Y342608D01*
X46130Y341775D01*
X44890Y341150D01*
X41790D01*
G01X54500D02*
Y353650D01*
X58375D01*
X59615Y353025D01*
X60390Y352192D01*
X60700Y350525D01*
X60390Y348858D01*
X59460Y347817D01*
X58375Y347192D01*
X54500D01*
G01X58375D02*
X60700Y341150D01*
G01X68140Y353650D02*
X71860D01*
G01X70000D02*
Y341150D01*
G01X68140D02*
X71860D01*
G01X79300Y353650D02*
Y341150D01*
X85500D01*
G01X91700Y353650D02*
Y341150D01*
X97900D01*
G01X123010Y352608D02*
X122080Y353233D01*
X120995Y353650D01*
X119755D01*
X118360Y353025D01*
X117275Y351983D01*
X116500Y350733D01*
X115880Y348650D01*
X115725Y346775D01*
X116035Y344900D01*
X116500Y343650D01*
X117430Y342400D01*
X118515Y341567D01*
X119600Y341150D01*
X120685D01*
X121770Y341567D01*
X122700Y342191D01*
X123475Y343025D01*
G01X128745Y341150D02*
Y353650D01*
G01X135255D02*
Y341150D01*
G01Y347400D02*
X128745D01*
G01X140525Y341150D02*
X144400Y353650D01*
X148275Y341150D01*
G01X146880Y345525D02*
X141920D01*
G01X153700Y341150D02*
Y353650D01*
X157575D01*
X158815Y353025D01*
X159590Y352192D01*
X159900Y350525D01*
X159590Y348858D01*
X158660Y347817D01*
X157575Y347192D01*
X153700D01*
G01X157575D02*
X159900Y341150D01*
G01X169200Y353650D02*
Y341150D01*
G01X165635Y353650D02*
X172765D01*
G01X181600Y340733D02*
X181290Y340942D01*
Y341358D01*
X181600Y341567D01*
X181910Y341358D01*
Y340942D01*
X181600Y340733D01*
G01Y346358D02*
X181290Y346567D01*
Y346983D01*
X181600Y347192D01*
X181910Y346983D01*
Y346567D01*
X181600Y346358D01*
G01X206400Y353650D02*
Y341150D01*
G01X202835Y353650D02*
X209965D01*
G01X218800Y341150D02*
X217560Y341358D01*
X216475Y342191D01*
X215545Y343442D01*
X214925Y344900D01*
X214615Y346567D01*
Y348233D01*
X214925Y349900D01*
X215545Y351358D01*
X216475Y352608D01*
X217560Y353442D01*
X218800Y353650D01*
X220040Y353442D01*
X221125Y352608D01*
X222055Y351358D01*
X222675Y349900D01*
X222985Y348233D01*
Y346567D01*
X222675Y344900D01*
X222055Y343442D01*
X221125Y342191D01*
X220040Y341358D01*
X218800Y341150D01*
G01X228100D02*
Y353650D01*
X231820D01*
X233060Y353025D01*
X233990Y351567D01*
X234300Y349900D01*
X233990Y348233D01*
X233215Y346983D01*
X231820Y346358D01*
X228100D01*
G01X256000Y353650D02*
Y341150D01*
G01X253830Y349483D02*
X258170D01*
G01X268400Y341150D02*
X267470Y341358D01*
X266540Y342191D01*
X265920Y343650D01*
X265610Y345317D01*
X265920Y346983D01*
X266540Y348442D01*
X267470Y349275D01*
X268400Y349483D01*
X269330Y349275D01*
X270260Y348442D01*
X270880Y346983D01*
X271035Y345317D01*
X270880Y343650D01*
X270260Y342191D01*
X269330Y341358D01*
X268400Y341150D01*
G01X294440Y347817D02*
X295060Y348442D01*
X295525Y349483D01*
X295835Y350942D01*
X295525Y352192D01*
X294905Y353025D01*
X293820Y353650D01*
X289635D01*
Y341150D01*
X294750D01*
X295835Y341983D01*
X296455Y343233D01*
X296765Y344692D01*
X296455Y346150D01*
X295525Y347400D01*
X294440Y347817D01*
X289635D01*
G01X305600Y341150D02*
X304360Y341358D01*
X303275Y342191D01*
X302345Y343442D01*
X301725Y344900D01*
X301415Y346567D01*
Y348233D01*
X301725Y349900D01*
X302345Y351358D01*
X303275Y352608D01*
X304360Y353442D01*
X305600Y353650D01*
X306840Y353442D01*
X307925Y352608D01*
X308855Y351358D01*
X309475Y349900D01*
X309785Y348233D01*
Y346567D01*
X309475Y344900D01*
X308855Y343442D01*
X307925Y342191D01*
X306840Y341358D01*
X305600Y341150D01*
G01X318000Y353650D02*
Y341150D01*
G01X314435Y353650D02*
X321565D01*
G01X330400D02*
Y341150D01*
G01X326835Y353650D02*
X333965D01*
G01X342800Y341150D02*
X341560Y341358D01*
X340475Y342191D01*
X339545Y343442D01*
X338925Y344900D01*
X338615Y346567D01*
Y348233D01*
X338925Y349900D01*
X339545Y351358D01*
X340475Y352608D01*
X341560Y353442D01*
X342800Y353650D01*
X344040Y353442D01*
X345125Y352608D01*
X346055Y351358D01*
X346675Y349900D01*
X346985Y348233D01*
Y346567D01*
X346675Y344900D01*
X346055Y343442D01*
X345125Y342191D01*
X344040Y341358D01*
X342800Y341150D01*
G01X351170D02*
Y353650D01*
X355200Y343233D01*
X359230Y353650D01*
Y341150D01*
G01X72325Y316150D02*
X76200Y328650D01*
X80075Y316150D01*
G01X78680Y320525D02*
X73720D01*
G01X85500Y328650D02*
Y316150D01*
X91700D01*
G01X97900Y328650D02*
Y316150D01*
X104100D01*
G01X122390Y328650D02*
Y319692D01*
X123010Y317816D01*
X124250Y316567D01*
X125800Y316150D01*
X127350Y316567D01*
X128590Y317816D01*
X129210Y319692D01*
Y328650D01*
G01X134635Y316150D02*
Y328650D01*
X141765Y316150D01*
Y328650D01*
G01X148740D02*
X152460D01*
G01X150600D02*
Y316150D01*
G01X148740D02*
X152460D01*
G01X163000Y328650D02*
Y316150D01*
G01X159435Y328650D02*
X166565D01*
G01X172145Y317816D02*
X173385Y316775D01*
X174780Y316150D01*
X176020D01*
X177260Y316775D01*
X178190Y317816D01*
X178655Y319275D01*
X178345Y320733D01*
X177570Y321983D01*
X176175Y322817D01*
X174315Y323233D01*
X173230Y324067D01*
X172765Y325525D01*
X173075Y326983D01*
X173850Y328025D01*
X174935Y328650D01*
X176020D01*
X177105Y328233D01*
X178035Y327192D01*
G01X196325Y316150D02*
X200200Y328650D01*
X204075Y316150D01*
G01X202680Y320525D02*
X197720D01*
G01X209500Y316150D02*
Y328650D01*
X213375D01*
X214615Y328025D01*
X215390Y327192D01*
X215700Y325525D01*
X215390Y323858D01*
X214460Y322817D01*
X213375Y322192D01*
X209500D01*
G01X213375D02*
X215700Y316150D01*
G01X228100D02*
X221900D01*
Y328650D01*
X228100D01*
G01X225620Y322608D02*
X221900D01*
G01X247940Y328650D02*
X251660D01*
G01X249800D02*
Y316150D01*
G01X247940D02*
X251660D01*
G01X258635D02*
Y328650D01*
X265765Y316150D01*
Y328650D01*
G01X282970Y316150D02*
Y328650D01*
X287000Y318233D01*
X291030Y328650D01*
Y316150D01*
G01X297540Y328650D02*
X301260D01*
G01X299400D02*
Y316150D01*
G01X297540D02*
X301260D01*
G01X308700Y328650D02*
Y316150D01*
X314900D01*
G01X320945Y317816D02*
X322185Y316775D01*
X323580Y316150D01*
X324820D01*
X326060Y316775D01*
X326990Y317816D01*
X327455Y319275D01*
X327145Y320733D01*
X326370Y321983D01*
X324975Y322817D01*
X323115Y323233D01*
X322030Y324067D01*
X321565Y325525D01*
X321875Y326983D01*
X322650Y328025D01*
X323735Y328650D01*
X324820D01*
X325905Y328233D01*
X326835Y327192D01*
G01X112325Y185800D02*
X160000D01*
G01X124250Y266150D02*
Y278650D01*
X122390Y276150D01*
G01Y266150D02*
X126110D01*
G01X133705Y271358D02*
X134790Y272817D01*
X135720Y273650D01*
X136960Y274067D01*
X138045Y273650D01*
X138820Y272817D01*
X139440Y271567D01*
X139595Y270108D01*
X139440Y268858D01*
X138820Y267608D01*
X137890Y266567D01*
X136805Y266150D01*
X135565Y266567D01*
X134480Y267816D01*
X133860Y269692D01*
X133705Y271775D01*
X134015Y274483D01*
X134480Y275942D01*
X135255Y277400D01*
X136340Y278442D01*
X137425Y278650D01*
X138510Y278233D01*
X139285Y277192D01*
G01X149050Y265733D02*
X148740Y265942D01*
Y266358D01*
X149050Y266567D01*
X149360Y266358D01*
Y265942D01*
X149050Y265733D01*
G01X161450Y278650D02*
X160210Y278233D01*
X159280Y277192D01*
X158660Y275942D01*
X158195Y274275D01*
X158040Y272400D01*
X158195Y270525D01*
X158660Y268858D01*
X159280Y267608D01*
X160210Y266567D01*
X161450Y266150D01*
X162690Y266567D01*
X163620Y267608D01*
X164240Y268858D01*
X164705Y270525D01*
X164860Y272400D01*
X164705Y274275D01*
X164240Y275942D01*
X163620Y277192D01*
X162690Y278233D01*
X161450Y278650D01*
G01X145000Y183300D02*
X160000Y185800D01*
X145000Y188300D01*
Y183300D01*
G01X160000Y170000D02*
Y195800D01*
G01X243600Y309900D02*
Y259900D01*
G01X273050Y266150D02*
Y278650D01*
X276770D01*
X278010Y278025D01*
X278940Y276567D01*
X279250Y274900D01*
X278940Y273233D01*
X278165Y271983D01*
X276770Y271358D01*
X273050D01*
G01X285450Y278650D02*
Y266150D01*
X291650D01*
G01X297075D02*
X300950Y278650D01*
X304825Y266150D01*
G01X303430Y270525D02*
X298470D01*
G01X313350Y278650D02*
Y266150D01*
G01X309785Y278650D02*
X316915D01*
G01X328850Y266150D02*
X322650D01*
Y278650D01*
X328850D01*
G01X326370Y272608D02*
X322650D01*
G01X334740Y266150D02*
Y278650D01*
X337840D01*
X339080Y278025D01*
X340010Y277192D01*
X340785Y275942D01*
X341405Y274483D01*
X341560Y272400D01*
X341405Y270317D01*
X340785Y268858D01*
X340010Y267608D01*
X339080Y266775D01*
X337840Y266150D01*
X334740D01*
G01X273050Y291150D02*
Y303650D01*
X276770D01*
X278010Y303025D01*
X278940Y301567D01*
X279250Y299900D01*
X278940Y298233D01*
X278165Y296983D01*
X276770Y296358D01*
X273050D01*
G01X285450Y303650D02*
Y291150D01*
X291650D01*
G01X297075D02*
X300950Y303650D01*
X304825Y291150D01*
G01X303430Y295525D02*
X298470D01*
G01X313350Y303650D02*
Y291150D01*
G01X309785Y303650D02*
X316915D01*
G01X328850Y291150D02*
X322650D01*
Y303650D01*
X328850D01*
G01X326370Y297608D02*
X322650D01*
G01X334740Y291150D02*
Y303650D01*
X337840D01*
X339080Y303025D01*
X340010Y302192D01*
X340785Y300942D01*
X341405Y299483D01*
X341560Y297400D01*
X341405Y295317D01*
X340785Y293858D01*
X340010Y292608D01*
X339080Y291775D01*
X337840Y291150D01*
X334740D01*
G01X298800Y14938D02*
Y204658D01*
X358800D01*
Y14938D01*
X298800D01*
G01X370700Y309900D02*
Y259900D01*
G01X397050Y291150D02*
X395810Y291358D01*
X394725Y292191D01*
X393795Y293442D01*
X393175Y294900D01*
X392865Y296567D01*
Y298233D01*
X393175Y299900D01*
X393795Y301358D01*
X394725Y302608D01*
X395810Y303442D01*
X397050Y303650D01*
X398290Y303442D01*
X399375Y302608D01*
X400305Y301358D01*
X400925Y299900D01*
X401235Y298233D01*
Y296567D01*
X400925Y294900D01*
X400305Y293442D01*
X399375Y292191D01*
X398290Y291358D01*
X397050Y291150D01*
G01X398290Y294483D02*
X400150Y291150D01*
G01X409450Y303650D02*
Y291150D01*
G01X405885Y303650D02*
X413015D01*
G01X421850Y291150D02*
Y296775D01*
X418750Y303650D01*
G01X424950D02*
X421850Y296775D01*
G01X400305Y276567D02*
X401235Y277816D01*
X402320Y278442D01*
X403560Y278650D01*
X405110Y278233D01*
X406195Y277192D01*
X406505Y275942D01*
X406350Y274691D01*
X405730Y273650D01*
X402630Y271567D01*
X401235Y270108D01*
X400305Y268025D01*
X399995Y266150D01*
X406505D01*
G01X415650Y278650D02*
X414410Y278233D01*
X413480Y277192D01*
X412860Y275942D01*
X412395Y274275D01*
X412240Y272400D01*
X412395Y270525D01*
X412860Y268858D01*
X413480Y267608D01*
X414410Y266567D01*
X415650Y266150D01*
X416890Y266567D01*
X417820Y267608D01*
X418440Y268858D01*
X418905Y270525D01*
X419060Y272400D01*
X418905Y274275D01*
X418440Y275942D01*
X417820Y277192D01*
X416890Y278233D01*
X415650Y278650D01*
M02*
