G04 ================== begin FILE IDENTIFICATION RECORD ==================*
G04 Layout Name:  Mures_Georgiana.brd*
G04 Film Name:    SMTOP*
G04 File Format:  Gerber RS274X*
G04 File Origin:  Cadence Allegro 17.2-S025*
G04 Origin Date:  Sun Dec 10 16:37:40 2023*
G04 *
G04 Layer:  VIA CLASS/SOLDERMASK_TOP*
G04 Layer:  PIN/SOLDERMASK_TOP*
G04 Layer:  PACKAGE GEOMETRY/SOLDERMASK_TOP*
G04 Layer:  BOARD GEOMETRY/SOLDERMASK_TOP*
G04 *
G04 Offset:    (0.00 0.00)*
G04 Mirror:    No*
G04 Mode:      Positive*
G04 Rotation:  0*
G04 FullContactRelief:  No*
G04 UndefLineWidth:     10.00*
G04 ================== end FILE IDENTIFICATION RECORD ====================*
%FSLAX25Y25*MOIN*%
%IR0*IPPOS*OFA0.00000B0.00000*MIA0B0*SFA1.00000B1.00000*%
%ADD11R,.13X.086*%
%ADD13R,.086X.13*%
%ADD17C,.08*%
%ADD10C,.036*%
%ADD12R,.06X.06*%
%ADD15R,.062X.062*%
%ADD19R,.046X.06*%
%ADD20R,.06X.046*%
%ADD21R,.089X.062*%
%ADD16R,.062X.089*%
%ADD14R,.058X.086*%
%ADD18R,.086X.058*%
%LPD*%
G75*
G54D10*
X8300Y85700D03*
X31100Y28700D03*
Y103600D03*
X54900Y103700D03*
X55100Y133700D03*
X80000Y70800D03*
X88700Y113500D03*
X75700Y95300D03*
X90700Y107400D03*
X92600Y133100D03*
X101000Y55600D03*
X106900Y35900D03*
X105200Y79500D03*
X123500Y113400D03*
X122400Y106400D03*
X108700Y145900D03*
Y128400D03*
X133200Y92500D03*
X141000Y84300D03*
X145800Y70400D03*
G54D20*
X95000Y91400D03*
Y83200D03*
X93000Y121100D03*
X103100Y87300D03*
X101100Y117000D03*
Y125200D03*
X125100Y124700D03*
X117000Y120600D03*
X116900Y145900D03*
X125000Y141800D03*
Y150000D03*
X117000Y128800D03*
G54D11*
X14400Y103600D03*
Y127200D03*
X145600Y32600D03*
Y56200D03*
G54D21*
X120972Y70844D03*
G54D12*
X13200Y28700D03*
X21600D03*
X13200Y38800D03*
X21600D03*
X32000Y121800D03*
Y130200D03*
X44300Y125100D03*
Y116700D03*
X54900Y116800D03*
Y125200D03*
X67300Y141600D03*
Y150000D03*
X45600Y133700D03*
Y142100D03*
X84300Y91300D03*
X71600Y79500D03*
X80000D03*
X91200Y70400D03*
X99600D03*
X84300Y99700D03*
X99500Y98800D03*
X92800Y141500D03*
Y149900D03*
X118400Y35900D03*
X126800D03*
X107900Y98800D03*
X109600Y108100D03*
X101200D03*
G54D13*
X27600Y14000D03*
X51200D03*
G54D14*
X24600Y50200D03*
X16700D03*
X59300Y91400D03*
X67200D03*
X51300Y74300D03*
X59200D03*
X141400Y113400D03*
X133500D03*
X133400Y101400D03*
X141300D03*
G54D15*
X16100Y85755D03*
Y76700D03*
X116445Y48600D03*
X125500D03*
G54D16*
X38344Y81228D03*
G54D17*
X20000Y140000D03*
X140000Y20000D03*
G54D18*
X32100Y142100D03*
Y150000D03*
G54D19*
X63300Y125200D03*
X67400Y102500D03*
Y133300D03*
X71500Y125200D03*
Y110600D03*
X75600Y102500D03*
X120600Y84400D03*
X124700Y92500D03*
X116500D03*
M02*
