G04 ================== begin FILE IDENTIFICATION RECORD ==================*
G04 Layout Name:  Mures_Georgiana.brd*
G04 Film Name:    SSTOP*
G04 File Format:  Gerber RS274X*
G04 File Origin:  Cadence Allegro 17.2-S025*
G04 Origin Date:  Sun Dec 10 16:37:40 2023*
G04 *
G04 Layer:  REF DES/SILKSCREEN_TOP*
G04 Layer:  PACKAGE GEOMETRY/SILKSCREEN_TOP*
G04 Layer:  BOARD GEOMETRY/SILKSCREEN_TOP*
G04 *
G04 Offset:    (0.00 0.00)*
G04 Mirror:    No*
G04 Mode:      Positive*
G04 Rotation:  0*
G04 FullContactRelief:  No*
G04 UndefLineWidth:     10.00*
G04 ================== end FILE IDENTIFICATION RECORD ====================*
%FSLAX25Y25*MOIN*%
%IR0*IPPOS*OFA0.00000B0.00000*MIA0B0*SFA1.00000B1.00000*%
%ADD10C,.01*%
%ADD11C,.005*%
%ADD12C,.006*%
%ADD13C,.00787*%
G75*
%LPD*%
G75*
G54D10*
G01X65500Y109300D02*
X77500D01*
Y103700D01*
X65500D01*
Y109300D01*
G01X61400Y132000D02*
X73400D01*
Y126400D01*
X61400D01*
Y132000D01*
G01X101800Y93300D02*
Y81300D01*
X96200D01*
Y93300D01*
X101800D01*
G01X94300Y115100D02*
Y127100D01*
X99900D01*
Y115100D01*
X94300D01*
G01X126600Y85700D02*
X114600D01*
Y91300D01*
X126600D01*
Y85700D01*
G01X123800Y130700D02*
Y118700D01*
X118200D01*
Y130700D01*
X123800D01*
G01X118200Y139900D02*
Y151900D01*
X123800D01*
Y139900D01*
X118200D01*
G54D11*
G01X11267Y20300D02*
Y22800D01*
X11933D01*
X12147Y22675D01*
X12280Y22508D01*
X12333Y22175D01*
X12280Y21842D01*
X12120Y21633D01*
X11933Y21508D01*
X11267D01*
G01X11933D02*
X12333Y20300D01*
G01X14000D02*
Y22800D01*
X13680Y22300D01*
G01Y20300D02*
X14320D01*
G01X16520D02*
Y22800D01*
X15533Y21008D01*
X16867D01*
G01X33200Y53313D02*
X30700D01*
Y53847D01*
X30825Y54060D01*
X30992Y54220D01*
X31242Y54353D01*
X31533Y54460D01*
X31950Y54487D01*
X32367Y54460D01*
X32658Y54353D01*
X32908Y54220D01*
X33075Y54060D01*
X33200Y53847D01*
Y53313D01*
G01Y56420D02*
X30700D01*
X32492Y55433D01*
Y56767D01*
G01X28367Y36800D02*
Y39300D01*
X29033D01*
X29247Y39175D01*
X29380Y39008D01*
X29433Y38675D01*
X29380Y38342D01*
X29220Y38133D01*
X29033Y38008D01*
X28367D01*
G01X29033D02*
X29433Y36800D01*
G01X31100D02*
Y39300D01*
X30780Y38800D01*
G01Y36800D02*
X31420D01*
G01X32713Y37175D02*
X32873Y36967D01*
X33060Y36842D01*
X33300Y36800D01*
X33540Y36883D01*
X33727Y37050D01*
X33860Y37342D01*
X33887Y37675D01*
X33833Y38008D01*
X33700Y38217D01*
X33513Y38383D01*
X33327Y38425D01*
X33140Y38383D01*
X32900Y38217D01*
X32980Y39300D01*
X33700D01*
G01X12567Y66500D02*
Y69000D01*
X13207D01*
X13420Y68875D01*
X13580Y68583D01*
X13633Y68250D01*
X13580Y67917D01*
X13447Y67667D01*
X13207Y67542D01*
X12567D01*
G01X14793Y68583D02*
X14953Y68833D01*
X15140Y68958D01*
X15353Y69000D01*
X15620Y68917D01*
X15807Y68708D01*
X15860Y68458D01*
X15833Y68208D01*
X15727Y68000D01*
X15193Y67583D01*
X14953Y67292D01*
X14793Y66875D01*
X14740Y66500D01*
X15860D01*
G01X32700Y111067D02*
X30200D01*
Y111733D01*
X30325Y111947D01*
X30492Y112080D01*
X30825Y112133D01*
X31158Y112080D01*
X31367Y111920D01*
X31492Y111733D01*
Y111067D01*
G01Y111733D02*
X32700Y112133D01*
G01Y113800D02*
X30200D01*
X30700Y113480D01*
G01X32700D02*
Y114120D01*
G01X32200Y115413D02*
X32492Y115573D01*
X32658Y115787D01*
X32700Y116027D01*
X32658Y116240D01*
X32450Y116453D01*
X32200Y116587D01*
X31950Y116613D01*
X31658Y116560D01*
X31450Y116373D01*
X31367Y116187D01*
Y115947D01*
G01Y116187D02*
X31242Y116347D01*
X31033Y116480D01*
X30783Y116533D01*
X30533Y116480D01*
X30325Y116347D01*
X30200Y116107D01*
X30242Y115867D01*
X30408Y115627D01*
G01X24800Y101967D02*
X25050Y102100D01*
X25217Y102260D01*
X25300Y102447D01*
X25217Y102660D01*
X25050Y102820D01*
X24800Y102980D01*
X24467Y103033D01*
X22800D01*
G01X25300Y104700D02*
X22800D01*
X23300Y104380D01*
G01X25300D02*
Y105020D01*
G01X25900Y144313D02*
X23400D01*
Y144847D01*
X23525Y145060D01*
X23692Y145220D01*
X23942Y145353D01*
X24233Y145460D01*
X24650Y145487D01*
X25067Y145460D01*
X25358Y145353D01*
X25608Y145220D01*
X25775Y145060D01*
X25900Y144847D01*
Y144313D01*
G01X25400Y146513D02*
X25692Y146673D01*
X25858Y146887D01*
X25900Y147127D01*
X25858Y147340D01*
X25650Y147553D01*
X25400Y147687D01*
X25150Y147713D01*
X24858Y147660D01*
X24650Y147473D01*
X24567Y147287D01*
Y147047D01*
G01Y147287D02*
X24442Y147447D01*
X24233Y147580D01*
X23983Y147633D01*
X23733Y147580D01*
X23525Y147447D01*
X23400Y147207D01*
X23442Y146967D01*
X23608Y146727D01*
G01X61000Y13367D02*
X61250Y13500D01*
X61417Y13660D01*
X61500Y13847D01*
X61417Y14060D01*
X61250Y14220D01*
X61000Y14380D01*
X60667Y14433D01*
X59000D01*
G01X59417Y15593D02*
X59167Y15753D01*
X59042Y15940D01*
X59000Y16153D01*
X59083Y16420D01*
X59292Y16607D01*
X59542Y16660D01*
X59792Y16633D01*
X60000Y16527D01*
X60417Y15993D01*
X60708Y15753D01*
X61125Y15593D01*
X61500Y15540D01*
Y16660D01*
G01X48513Y83200D02*
Y81408D01*
X48620Y81033D01*
X48833Y80783D01*
X49100Y80700D01*
X49367Y80783D01*
X49580Y81033D01*
X49687Y81408D01*
Y83200D01*
G01X51620Y80700D02*
Y83200D01*
X50633Y81408D01*
X51967D01*
G01X68499Y109323D02*
X65499Y109333D01*
X65489Y106133D01*
G01X57613Y100000D02*
Y98208D01*
X57720Y97833D01*
X57933Y97583D01*
X58200Y97500D01*
X58467Y97583D01*
X58680Y97833D01*
X58787Y98208D01*
Y100000D01*
G01X59813Y98000D02*
X59973Y97708D01*
X60187Y97542D01*
X60427Y97500D01*
X60640Y97542D01*
X60853Y97750D01*
X60987Y98000D01*
X61013Y98250D01*
X60960Y98542D01*
X60773Y98750D01*
X60587Y98833D01*
X60347D01*
G01X60587D02*
X60747Y98958D01*
X60880Y99167D01*
X60933Y99417D01*
X60880Y99667D01*
X60747Y99875D01*
X60507Y100000D01*
X60267Y99958D01*
X60027Y99792D01*
G01X41500Y108567D02*
X39000D01*
Y109233D01*
X39125Y109447D01*
X39292Y109580D01*
X39625Y109633D01*
X39958Y109580D01*
X40167Y109420D01*
X40292Y109233D01*
Y108567D01*
G01Y109233D02*
X41500Y109633D01*
G01Y111300D02*
X39000D01*
X39500Y110980D01*
G01X41500D02*
Y111620D01*
G01X60308Y116787D02*
X60183Y116627D01*
X60100Y116440D01*
Y116227D01*
X60225Y115987D01*
X60433Y115800D01*
X60683Y115667D01*
X61100Y115560D01*
X61475Y115533D01*
X61850Y115587D01*
X62100Y115667D01*
X62350Y115827D01*
X62517Y116013D01*
X62600Y116200D01*
Y116387D01*
X62517Y116573D01*
X62392Y116733D01*
X62225Y116867D01*
G01X62600Y118400D02*
X60100D01*
X60600Y118080D01*
G01X62600D02*
Y118720D01*
G01X68480Y126509D02*
Y126409D01*
X65980Y126418D01*
G01X64299Y132123D02*
X61299Y132133D01*
X61289Y128933D01*
G01X53200Y136867D02*
X50700D01*
Y137533D01*
X50825Y137747D01*
X50992Y137880D01*
X51325Y137933D01*
X51658Y137880D01*
X51867Y137720D01*
X51992Y137533D01*
Y136867D01*
G01Y137533D02*
X53200Y137933D01*
G01Y139600D02*
X50700D01*
X51200Y139280D01*
G01X53200D02*
Y139920D01*
G01X51117Y141293D02*
X50867Y141453D01*
X50742Y141640D01*
X50700Y141853D01*
X50783Y142120D01*
X50992Y142307D01*
X51242Y142360D01*
X51492Y142333D01*
X51700Y142227D01*
X52117Y141693D01*
X52408Y141453D01*
X52825Y141293D01*
X53200Y141240D01*
Y142360D01*
G01X93707Y12300D02*
Y14800D01*
X94400Y12717D01*
X95093Y14800D01*
Y12300D01*
G01X96013Y14800D02*
Y13008D01*
X96120Y12633D01*
X96333Y12383D01*
X96600Y12300D01*
X96867Y12383D01*
X97080Y12633D01*
X97187Y13008D01*
Y14800D01*
G01X98267Y12300D02*
Y14800D01*
X98933D01*
X99147Y14675D01*
X99280Y14508D01*
X99333Y14175D01*
X99280Y13842D01*
X99120Y13633D01*
X98933Y13508D01*
X98267D01*
G01X98933D02*
X99333Y12300D01*
G01X101533D02*
X100467D01*
Y14800D01*
X101533D01*
G01X101107Y13592D02*
X100467D01*
G01X102640Y12633D02*
X102853Y12425D01*
X103093Y12300D01*
X103307D01*
X103520Y12425D01*
X103680Y12633D01*
X103760Y12925D01*
X103707Y13217D01*
X103573Y13467D01*
X103333Y13633D01*
X103013Y13717D01*
X102827Y13883D01*
X102747Y14175D01*
X102800Y14467D01*
X102933Y14675D01*
X103120Y14800D01*
X103307D01*
X103493Y14717D01*
X103653Y14508D01*
G01X108133Y12300D02*
X107067D01*
Y14800D01*
X108133D01*
G01X107707Y13592D02*
X107067D01*
G01X109267Y14800D02*
Y12300D01*
X110333D01*
G01X112533D02*
X111467D01*
Y14800D01*
X112533D01*
G01X112107Y13592D02*
X111467D01*
G01X113587Y12300D02*
Y14800D01*
X114813Y12300D01*
Y14800D01*
G01X115733Y12300D02*
X116400Y14800D01*
X117067Y12300D01*
G01X116827Y13175D02*
X115973D01*
G01X94720Y9200D02*
Y11700D01*
X93733Y9908D01*
X95067D01*
G01X96013Y9700D02*
X96173Y9408D01*
X96387Y9242D01*
X96627Y9200D01*
X96840Y9242D01*
X97053Y9450D01*
X97187Y9700D01*
X97213Y9950D01*
X97160Y10242D01*
X96973Y10450D01*
X96787Y10533D01*
X96547D01*
G01X96787D02*
X96947Y10658D01*
X97080Y10867D01*
X97133Y11117D01*
X97080Y11367D01*
X96947Y11575D01*
X96707Y11700D01*
X96467Y11658D01*
X96227Y11492D01*
G01X99120Y9200D02*
Y11700D01*
X98133Y9908D01*
X99467D01*
G01X101533Y9200D02*
X100467D01*
Y11700D01*
X101533D01*
G01X101107Y10492D02*
X100467D01*
G01X102853Y10033D02*
X103547D01*
G01X104867Y9200D02*
Y11700D01*
X105507D01*
X105720Y11575D01*
X105880Y11283D01*
X105933Y10950D01*
X105880Y10617D01*
X105747Y10367D01*
X105507Y10242D01*
X104867D01*
G01X107013Y9200D02*
Y11700D01*
X107547D01*
X107760Y11575D01*
X107920Y11408D01*
X108053Y11158D01*
X108160Y10867D01*
X108187Y10450D01*
X108160Y10033D01*
X108053Y9742D01*
X107920Y9492D01*
X107760Y9325D01*
X107547Y9200D01*
X107013D01*
G01X110387Y11492D02*
X110227Y11617D01*
X110040Y11700D01*
X109827D01*
X109587Y11575D01*
X109400Y11367D01*
X109267Y11117D01*
X109160Y10700D01*
X109133Y10325D01*
X109187Y9950D01*
X109267Y9700D01*
X109427Y9450D01*
X109613Y9283D01*
X109800Y9200D01*
X109987D01*
X110173Y9283D01*
X110333Y9408D01*
X110467Y9575D01*
G01X112533Y9200D02*
X111467D01*
Y11700D01*
X112533D01*
G01X112107Y10492D02*
X111467D01*
G01X114200Y9200D02*
Y11700D01*
X113880Y11200D01*
G01Y9200D02*
X114520D01*
G01X118093Y11283D02*
X118253Y11533D01*
X118440Y11658D01*
X118653Y11700D01*
X118920Y11617D01*
X119107Y11408D01*
X119160Y11158D01*
X119133Y10908D01*
X119027Y10700D01*
X118493Y10283D01*
X118253Y9992D01*
X118093Y9575D01*
X118040Y9200D01*
X119160D01*
G01X120800Y11700D02*
X120587Y11617D01*
X120427Y11408D01*
X120320Y11158D01*
X120240Y10825D01*
X120213Y10450D01*
X120240Y10075D01*
X120320Y9742D01*
X120427Y9492D01*
X120587Y9283D01*
X120800Y9200D01*
X121013Y9283D01*
X121173Y9492D01*
X121280Y9742D01*
X121360Y10075D01*
X121387Y10450D01*
X121360Y10825D01*
X121280Y11158D01*
X121173Y11408D01*
X121013Y11617D01*
X120800Y11700D01*
G01X122493Y11283D02*
X122653Y11533D01*
X122840Y11658D01*
X123053Y11700D01*
X123320Y11617D01*
X123507Y11408D01*
X123560Y11158D01*
X123533Y10908D01*
X123427Y10700D01*
X122893Y10283D01*
X122653Y9992D01*
X122493Y9575D01*
X122440Y9200D01*
X123560D01*
G01X124613Y9700D02*
X124773Y9408D01*
X124987Y9242D01*
X125227Y9200D01*
X125440Y9242D01*
X125653Y9450D01*
X125787Y9700D01*
X125813Y9950D01*
X125760Y10242D01*
X125573Y10450D01*
X125387Y10533D01*
X125147D01*
G01X125387D02*
X125547Y10658D01*
X125680Y10867D01*
X125733Y11117D01*
X125680Y11367D01*
X125547Y11575D01*
X125307Y11700D01*
X125067Y11658D01*
X124827Y11492D01*
G01X127053Y10033D02*
X127747D01*
G01X129093Y11283D02*
X129253Y11533D01*
X129440Y11658D01*
X129653Y11700D01*
X129920Y11617D01*
X130107Y11408D01*
X130160Y11158D01*
X130133Y10908D01*
X130027Y10700D01*
X129493Y10283D01*
X129253Y9992D01*
X129093Y9575D01*
X129040Y9200D01*
X130160D01*
G01X131800Y11700D02*
X131587Y11617D01*
X131427Y11408D01*
X131320Y11158D01*
X131240Y10825D01*
X131213Y10450D01*
X131240Y10075D01*
X131320Y9742D01*
X131427Y9492D01*
X131587Y9283D01*
X131800Y9200D01*
X132013Y9283D01*
X132173Y9492D01*
X132280Y9742D01*
X132360Y10075D01*
X132387Y10450D01*
X132360Y10825D01*
X132280Y11158D01*
X132173Y11408D01*
X132013Y11617D01*
X131800Y11700D01*
G01X133493Y11283D02*
X133653Y11533D01*
X133840Y11658D01*
X134053Y11700D01*
X134320Y11617D01*
X134507Y11408D01*
X134560Y11158D01*
X134533Y10908D01*
X134427Y10700D01*
X133893Y10283D01*
X133653Y9992D01*
X133493Y9575D01*
X133440Y9200D01*
X134560D01*
G01X136520D02*
Y11700D01*
X135533Y9908D01*
X136867D01*
G01X96304Y86208D02*
X96204D01*
X96207Y88708D01*
G01X74167Y84400D02*
Y86900D01*
X74833D01*
X75047Y86775D01*
X75180Y86608D01*
X75233Y86275D01*
X75180Y85942D01*
X75020Y85733D01*
X74833Y85608D01*
X74167D01*
G01X74833D02*
X75233Y84400D01*
G01X76900D02*
X77087Y84442D01*
X77300Y84567D01*
X77433Y84775D01*
X77487Y85067D01*
X77433Y85358D01*
X77273Y85608D01*
X77033Y85733D01*
X76767D01*
X76607Y85817D01*
X76473Y86025D01*
X76420Y86317D01*
X76500Y86608D01*
X76687Y86817D01*
X76900Y86900D01*
X77113Y86817D01*
X77300Y86608D01*
X77380Y86317D01*
X77327Y86025D01*
X77193Y85817D01*
X77033Y85733D01*
X76767D01*
X76527Y85608D01*
X76367Y85358D01*
X76313Y85067D01*
X76367Y84775D01*
X76500Y84567D01*
X76713Y84442D01*
X76900Y84400D01*
G01X94200Y118100D02*
Y115100D01*
X97400D01*
G01X72680Y103709D02*
Y103609D01*
X70180Y103618D01*
G01X74699Y109302D02*
X77499Y109293D01*
X77488Y105993D01*
G01X76400Y110300D02*
X76187Y110342D01*
X76000Y110508D01*
X75840Y110758D01*
X75733Y111050D01*
X75680Y111383D01*
Y111717D01*
X75733Y112050D01*
X75840Y112342D01*
X76000Y112592D01*
X76187Y112758D01*
X76400Y112800D01*
X76613Y112758D01*
X76800Y112592D01*
X76960Y112342D01*
X77067Y112050D01*
X77120Y111717D01*
Y111383D01*
X77067Y111050D01*
X76960Y110758D01*
X76800Y110508D01*
X76613Y110342D01*
X76400Y110300D01*
G01X76613Y110967D02*
X76933Y110300D01*
G01X78013Y110800D02*
X78173Y110508D01*
X78387Y110342D01*
X78627Y110300D01*
X78840Y110342D01*
X79053Y110550D01*
X79187Y110800D01*
X79213Y111050D01*
X79160Y111342D01*
X78973Y111550D01*
X78787Y111633D01*
X78547D01*
G01X78787D02*
X78947Y111758D01*
X79080Y111967D01*
X79133Y112217D01*
X79080Y112467D01*
X78947Y112675D01*
X78707Y112800D01*
X78467Y112758D01*
X78227Y112592D01*
G01X82267Y104700D02*
Y107200D01*
X82933D01*
X83147Y107075D01*
X83280Y106908D01*
X83333Y106575D01*
X83280Y106242D01*
X83120Y106033D01*
X82933Y105908D01*
X82267D01*
G01X82933D02*
X83333Y104700D01*
G01X84547Y104992D02*
X84733Y104783D01*
X84947Y104700D01*
X85160Y104783D01*
X85347Y105033D01*
X85480Y105408D01*
X85533Y105783D01*
Y106242D01*
X85480Y106617D01*
X85347Y106950D01*
X85187Y107117D01*
X85000Y107200D01*
X84787Y107117D01*
X84627Y106950D01*
X84520Y106700D01*
X84467Y106367D01*
X84520Y106075D01*
X84653Y105783D01*
X84813Y105617D01*
X85000Y105575D01*
X85213Y105658D01*
X85373Y105867D01*
X85533Y106242D01*
G01X94700Y97967D02*
X92200D01*
Y98633D01*
X92325Y98847D01*
X92492Y98980D01*
X92825Y99033D01*
X93158Y98980D01*
X93367Y98820D01*
X93492Y98633D01*
Y97967D01*
G01Y98633D02*
X94700Y99033D01*
G01X93658Y100193D02*
X93367Y100380D01*
X93200Y100540D01*
X93117Y100753D01*
X93200Y100940D01*
X93367Y101073D01*
X93617Y101180D01*
X93908Y101207D01*
X94158Y101180D01*
X94408Y101073D01*
X94617Y100913D01*
X94700Y100727D01*
X94617Y100513D01*
X94367Y100327D01*
X93992Y100220D01*
X93575Y100193D01*
X93033Y100247D01*
X92742Y100327D01*
X92450Y100460D01*
X92242Y100647D01*
X92200Y100833D01*
X92283Y101020D01*
X92492Y101153D01*
G01X96300Y106667D02*
X93800D01*
Y107333D01*
X93925Y107547D01*
X94092Y107680D01*
X94425Y107733D01*
X94758Y107680D01*
X94967Y107520D01*
X95092Y107333D01*
Y106667D01*
G01Y107333D02*
X96300Y107733D01*
G01X95925Y108813D02*
X96133Y108973D01*
X96258Y109160D01*
X96300Y109400D01*
X96217Y109640D01*
X96050Y109827D01*
X95758Y109960D01*
X95425Y109987D01*
X95092Y109933D01*
X94883Y109800D01*
X94717Y109613D01*
X94675Y109427D01*
X94717Y109240D01*
X94883Y109000D01*
X93800Y109080D01*
Y109800D01*
G01X94200Y124300D02*
Y127100D01*
X97500D01*
G01X70499Y132102D02*
X73299Y132093D01*
X73288Y128793D01*
G01X93300Y128600D02*
X93087Y128642D01*
X92900Y128808D01*
X92740Y129058D01*
X92633Y129350D01*
X92580Y129683D01*
Y130017D01*
X92633Y130350D01*
X92740Y130642D01*
X92900Y130892D01*
X93087Y131058D01*
X93300Y131100D01*
X93513Y131058D01*
X93700Y130892D01*
X93860Y130642D01*
X93967Y130350D01*
X94020Y130017D01*
Y129683D01*
X93967Y129350D01*
X93860Y129058D01*
X93700Y128808D01*
X93513Y128642D01*
X93300Y128600D01*
G01X93513Y129267D02*
X93833Y128600D01*
G01X95500D02*
Y131100D01*
X95180Y130600D01*
G01Y128600D02*
X95820D01*
G01X73200Y133400D02*
X72987Y133442D01*
X72800Y133608D01*
X72640Y133858D01*
X72533Y134150D01*
X72480Y134483D01*
Y134817D01*
X72533Y135150D01*
X72640Y135442D01*
X72800Y135692D01*
X72987Y135858D01*
X73200Y135900D01*
X73413Y135858D01*
X73600Y135692D01*
X73760Y135442D01*
X73867Y135150D01*
X73920Y134817D01*
Y134483D01*
X73867Y134150D01*
X73760Y133858D01*
X73600Y133608D01*
X73413Y133442D01*
X73200Y133400D01*
G01X73413Y134067D02*
X73733Y133400D01*
G01X74893Y135483D02*
X75053Y135733D01*
X75240Y135858D01*
X75453Y135900D01*
X75720Y135817D01*
X75907Y135608D01*
X75960Y135358D01*
X75933Y135108D01*
X75827Y134900D01*
X75293Y134483D01*
X75053Y134192D01*
X74893Y133775D01*
X74840Y133400D01*
X75960D01*
G01X88000Y142367D02*
X85500D01*
Y143033D01*
X85625Y143247D01*
X85792Y143380D01*
X86125Y143433D01*
X86458Y143380D01*
X86667Y143220D01*
X86792Y143033D01*
Y142367D01*
G01Y143033D02*
X88000Y143433D01*
G01Y145420D02*
X85500D01*
X87292Y144433D01*
Y145767D01*
G01X74900Y143167D02*
X72400D01*
Y143833D01*
X72525Y144047D01*
X72692Y144180D01*
X73025Y144233D01*
X73358Y144180D01*
X73567Y144020D01*
X73692Y143833D01*
Y143167D01*
G01Y143833D02*
X74900Y144233D01*
G01X74400Y145313D02*
X74692Y145473D01*
X74858Y145687D01*
X74900Y145927D01*
X74858Y146140D01*
X74650Y146353D01*
X74400Y146487D01*
X74150Y146513D01*
X73858Y146460D01*
X73650Y146273D01*
X73567Y146087D01*
Y145847D01*
G01Y146087D02*
X73442Y146247D01*
X73233Y146380D01*
X72983Y146433D01*
X72733Y146380D01*
X72525Y146247D01*
X72400Y146007D01*
X72442Y145767D01*
X72608Y145527D01*
G01X116267Y27700D02*
Y30200D01*
X116933D01*
X117147Y30075D01*
X117280Y29908D01*
X117333Y29575D01*
X117280Y29242D01*
X117120Y29033D01*
X116933Y28908D01*
X116267D01*
G01X116933D02*
X117333Y27700D01*
G01X119000D02*
Y30200D01*
X118680Y29700D01*
G01Y27700D02*
X119320D01*
G01X120693Y28742D02*
X120880Y29033D01*
X121040Y29200D01*
X121253Y29283D01*
X121440Y29200D01*
X121573Y29033D01*
X121680Y28783D01*
X121707Y28492D01*
X121680Y28242D01*
X121573Y27992D01*
X121413Y27783D01*
X121227Y27700D01*
X121013Y27783D01*
X120827Y28033D01*
X120720Y28408D01*
X120693Y28825D01*
X120747Y29367D01*
X120827Y29658D01*
X120960Y29950D01*
X121147Y30158D01*
X121333Y30200D01*
X121520Y30117D01*
X121653Y29908D01*
G01X108000Y46967D02*
X105500D01*
Y47607D01*
X105625Y47820D01*
X105917Y47980D01*
X106250Y48033D01*
X106583Y47980D01*
X106833Y47847D01*
X106958Y47607D01*
Y46967D01*
G01X108000Y49700D02*
X105500D01*
X106000Y49380D01*
G01X108000D02*
Y50020D01*
G01X105500Y51900D02*
X105583Y51687D01*
X105792Y51527D01*
X106042Y51420D01*
X106375Y51340D01*
X106750Y51313D01*
X107125Y51340D01*
X107458Y51420D01*
X107708Y51527D01*
X107917Y51687D01*
X108000Y51900D01*
X107917Y52113D01*
X107708Y52273D01*
X107458Y52380D01*
X107125Y52460D01*
X106750Y52487D01*
X106375Y52460D01*
X106042Y52380D01*
X105792Y52273D01*
X105583Y52113D01*
X105500Y51900D01*
G01X98067Y62900D02*
Y65400D01*
X98733D01*
X98947Y65275D01*
X99080Y65108D01*
X99133Y64775D01*
X99080Y64442D01*
X98920Y64233D01*
X98733Y64108D01*
X98067D01*
G01X98733D02*
X99133Y62900D01*
G01X100747D02*
X100800Y63442D01*
X100880Y63900D01*
X100987Y64317D01*
X101120Y64775D01*
X101333Y65400D01*
X100267D01*
G01X101910Y90400D02*
X101914Y93400D01*
X98714Y93405D01*
G01X101901Y84200D02*
X101897Y81400D01*
X98597Y81405D01*
G01X119395Y91302D02*
Y91402D01*
X121895Y91404D01*
G01X123600Y85706D02*
X126600Y85708D01*
X126597Y88908D01*
G01X117400Y85701D02*
X114600Y85698D01*
X114597Y88998D01*
G01X104000Y90400D02*
X103787Y90442D01*
X103600Y90608D01*
X103440Y90858D01*
X103333Y91150D01*
X103280Y91483D01*
Y91817D01*
X103333Y92150D01*
X103440Y92442D01*
X103600Y92692D01*
X103787Y92858D01*
X104000Y92900D01*
X104213Y92858D01*
X104400Y92692D01*
X104560Y92442D01*
X104667Y92150D01*
X104720Y91817D01*
Y91483D01*
X104667Y91150D01*
X104560Y90858D01*
X104400Y90608D01*
X104213Y90442D01*
X104000Y90400D01*
G01X104213Y91067D02*
X104533Y90400D01*
G01X106520D02*
Y92900D01*
X105533Y91108D01*
X106867D01*
G01X99800Y122300D02*
X99900D01*
Y119800D01*
G01X123901Y121400D02*
X123897Y118600D01*
X120597Y118605D01*
G01X123800Y147100D02*
X123900D01*
Y144600D01*
G01X118200Y142900D02*
Y139900D01*
X121400D01*
G01X118200Y149100D02*
Y151900D01*
X121500D01*
G01X118304Y123408D02*
X118204D01*
X118207Y125908D01*
G01X123910Y127600D02*
X123914Y130600D01*
X120714Y130605D01*
G01X126900Y136300D02*
X126687Y136342D01*
X126500Y136508D01*
X126340Y136758D01*
X126233Y137050D01*
X126180Y137383D01*
Y137717D01*
X126233Y138050D01*
X126340Y138342D01*
X126500Y138592D01*
X126687Y138758D01*
X126900Y138800D01*
X127113Y138758D01*
X127300Y138592D01*
X127460Y138342D01*
X127567Y138050D01*
X127620Y137717D01*
Y137383D01*
X127567Y137050D01*
X127460Y136758D01*
X127300Y136508D01*
X127113Y136342D01*
X126900Y136300D01*
G01X127113Y136967D02*
X127433Y136300D01*
G01X128593Y137342D02*
X128780Y137633D01*
X128940Y137800D01*
X129153Y137883D01*
X129340Y137800D01*
X129473Y137633D01*
X129580Y137383D01*
X129607Y137092D01*
X129580Y136842D01*
X129473Y136592D01*
X129313Y136383D01*
X129127Y136300D01*
X128913Y136383D01*
X128727Y136633D01*
X128620Y137008D01*
X128593Y137425D01*
X128647Y137967D01*
X128727Y138258D01*
X128860Y138550D01*
X129047Y138758D01*
X129233Y138800D01*
X129420Y138717D01*
X129553Y138508D01*
G01X126100Y128200D02*
X125887Y128242D01*
X125700Y128408D01*
X125540Y128658D01*
X125433Y128950D01*
X125380Y129283D01*
Y129617D01*
X125433Y129950D01*
X125540Y130242D01*
X125700Y130492D01*
X125887Y130658D01*
X126100Y130700D01*
X126313Y130658D01*
X126500Y130492D01*
X126660Y130242D01*
X126767Y129950D01*
X126820Y129617D01*
Y129283D01*
X126767Y128950D01*
X126660Y128658D01*
X126500Y128408D01*
X126313Y128242D01*
X126100Y128200D01*
G01X126313Y128867D02*
X126633Y128200D01*
G01X127713Y128575D02*
X127873Y128367D01*
X128060Y128242D01*
X128300Y128200D01*
X128540Y128283D01*
X128727Y128450D01*
X128860Y128742D01*
X128887Y129075D01*
X128833Y129408D01*
X128700Y129617D01*
X128513Y129783D01*
X128327Y129825D01*
X128140Y129783D01*
X127900Y129617D01*
X127980Y130700D01*
X128700D01*
G01X135600Y25867D02*
X135850Y26000D01*
X136017Y26160D01*
X136100Y26347D01*
X136017Y26560D01*
X135850Y26720D01*
X135600Y26880D01*
X135267Y26933D01*
X133600D01*
G01X135600Y28013D02*
X135892Y28173D01*
X136058Y28387D01*
X136100Y28627D01*
X136058Y28840D01*
X135850Y29053D01*
X135600Y29187D01*
X135350Y29213D01*
X135058Y29160D01*
X134850Y28973D01*
X134767Y28787D01*
Y28547D01*
G01Y28787D02*
X134642Y28947D01*
X134433Y29080D01*
X134183Y29133D01*
X133933Y29080D01*
X133725Y28947D01*
X133600Y28707D01*
X133642Y28467D01*
X133808Y28227D01*
G01X142413Y95000D02*
Y93208D01*
X142520Y92833D01*
X142733Y92583D01*
X143000Y92500D01*
X143267Y92583D01*
X143480Y92833D01*
X143587Y93208D01*
Y95000D01*
G01X144693Y94583D02*
X144853Y94833D01*
X145040Y94958D01*
X145253Y95000D01*
X145520Y94917D01*
X145707Y94708D01*
X145760Y94458D01*
X145733Y94208D01*
X145627Y94000D01*
X145093Y93583D01*
X144853Y93292D01*
X144693Y92875D01*
X144640Y92500D01*
X145760D01*
G01X128800Y86800D02*
X128587Y86842D01*
X128400Y87008D01*
X128240Y87258D01*
X128133Y87550D01*
X128080Y87883D01*
Y88217D01*
X128133Y88550D01*
X128240Y88842D01*
X128400Y89092D01*
X128587Y89258D01*
X128800Y89300D01*
X129013Y89258D01*
X129200Y89092D01*
X129360Y88842D01*
X129467Y88550D01*
X129520Y88217D01*
Y87883D01*
X129467Y87550D01*
X129360Y87258D01*
X129200Y87008D01*
X129013Y86842D01*
X128800Y86800D01*
G01X129013Y87467D02*
X129333Y86800D01*
G01X130947D02*
X131000Y87342D01*
X131080Y87800D01*
X131187Y88217D01*
X131320Y88675D01*
X131533Y89300D01*
X130467D01*
G01X142513Y122300D02*
Y120508D01*
X142620Y120133D01*
X142833Y119883D01*
X143100Y119800D01*
X143367Y119883D01*
X143580Y120133D01*
X143687Y120508D01*
Y122300D01*
G01X145300Y119800D02*
Y122300D01*
X144980Y121800D01*
G01Y119800D02*
X145620D01*
G54D12*
G01X6900Y132650D02*
Y98150D01*
G01D02*
X21900D01*
G01Y132650D02*
X6900D01*
G01X25400Y24950D02*
X9400D01*
G01D02*
Y32450D01*
G01X25400D02*
Y24950D01*
G01X22150Y21500D02*
Y6500D01*
G01D02*
X56650D01*
G01Y21500D02*
X22150D01*
G01X12800Y55350D02*
X28600D01*
G01D02*
Y51050D01*
G01D02*
X29450Y50200D01*
G01D02*
X28600Y49350D01*
G01D02*
Y45050D01*
G01D02*
X12800D01*
G01D02*
Y55350D01*
G01X25400Y35050D02*
X9400D01*
G01D02*
Y42550D01*
G01D02*
X25400D01*
G01D02*
Y35050D01*
G01X9400Y32450D02*
X25400D01*
G01X35750Y134000D02*
Y118000D01*
G01D02*
X28250D01*
G01D02*
Y134000D01*
G01X21900Y98150D02*
Y132650D01*
G01X37250Y153900D02*
Y138100D01*
G01D02*
X32950D01*
G01D02*
X32100Y137250D01*
G01D02*
X31250Y138100D01*
G01D02*
X26950D01*
G01D02*
Y153900D01*
G01X28250Y134000D02*
X35750D01*
G01X26950Y153900D02*
X37250D01*
G01X56650Y6500D02*
Y21500D01*
G01X71100Y86250D02*
X55300D01*
G01D02*
Y90550D01*
G01D02*
X54450Y91400D01*
G01D02*
X55300Y92250D01*
G01D02*
Y96550D01*
G01X63100Y69150D02*
X47300D01*
G01D02*
Y73450D01*
G01D02*
X46450Y74300D01*
G01D02*
X47300Y75150D01*
G01D02*
Y79450D01*
G01D02*
X63100D01*
G01D02*
Y69150D01*
G01X55300Y96550D02*
X71100D01*
G01X40550Y112900D02*
Y128900D01*
G01X48050D02*
Y112900D01*
G01D02*
X40550D01*
G01X58650Y129000D02*
Y113000D01*
G01D02*
X51150D01*
G01D02*
Y129000D01*
G01X71050Y137800D02*
X63550D01*
G01D02*
Y153800D01*
G01X49350Y145900D02*
Y129900D01*
G01D02*
X41850D01*
G01D02*
Y145900D01*
G01D02*
X49350D01*
G01X40550Y128900D02*
X48050D01*
G01X51150Y129000D02*
X58650D01*
G01X63550Y153800D02*
X71050D01*
G01X71100Y96550D02*
Y86250D01*
G01X88050Y103500D02*
Y87500D01*
G01D02*
X80550D01*
G01D02*
Y103500D01*
G01X83800Y75750D02*
X67800D01*
G01D02*
Y83250D01*
G01D02*
X83800D01*
G01D02*
Y75750D01*
G01X103400Y66650D02*
X87400D01*
G01D02*
Y74150D01*
G01D02*
X103400D01*
G01X80550Y103500D02*
X88050D01*
G01X95700Y102550D02*
X111700D01*
G01Y95050D02*
X95700D01*
G01D02*
Y102550D01*
G01X96550Y153700D02*
Y137700D01*
G01D02*
X89050D01*
G01D02*
Y153700D01*
G01X71050Y153800D02*
Y137800D01*
G01X89050Y153700D02*
X96550D01*
G01X130600Y32150D02*
X114600D01*
G01D02*
Y39650D01*
G01D02*
X130600D01*
G01X103400Y74150D02*
Y66650D01*
G01X111700Y102550D02*
Y95050D01*
G01X97400Y111850D02*
X113400D01*
G01D02*
Y104350D01*
G01D02*
X97400D01*
G01D02*
Y111850D01*
G01X130600Y39650D02*
Y32150D01*
G01X138100Y61650D02*
Y27150D01*
G01D02*
X153100D01*
G01D02*
Y61650D01*
G01D02*
X138100D01*
G01X129600Y118550D02*
X145400D01*
G01D02*
Y114250D01*
G01D02*
X146250Y113400D01*
G01D02*
X145400Y112550D01*
G01D02*
Y108250D01*
G01D02*
X129600D01*
G01D02*
Y118550D01*
G01X145200Y96250D02*
X129400D01*
G01D02*
Y100550D01*
G01D02*
X128550Y101400D01*
G01D02*
X129400Y102250D01*
G01D02*
Y106550D01*
G01D02*
X145200D01*
G01D02*
Y96250D01*
G54D13*
G01X27222Y76700D02*
Y85558D01*
G01X31750Y81228D02*
X22694D01*
G01X27222Y75322D02*
G03X33128Y81228I0J5906D01*
G03X27025Y87133I-5909J-1D01*
G03X21317Y81228I194J-5899D01*
G03X27222Y75322I5905J-1D01*
G01X17380Y80243D02*
Y82212D01*
G01X37065Y86739D02*
Y91070D01*
X17380D01*
Y89889D01*
G01X37065Y75716D02*
Y71385D01*
X17380D01*
Y72566D01*
G01X125500Y59722D02*
X116642D01*
G01X120972Y64250D02*
Y55194D01*
G01X126878Y59722D02*
G03X120972Y65628I-5906J0D01*
G03X115067Y59525I1J-5909D01*
G03X120972Y53817I5899J194D01*
G03X126878Y59722I1J5905D01*
G01X121957Y49880D02*
X119988D01*
G01X115461Y69565D02*
X111130D01*
Y49880D01*
X112311D01*
G01X126484Y69565D02*
X130815D01*
Y49880D01*
X129634D01*
M02*
