G04 ================== begin FILE IDENTIFICATION RECORD ==================*
G04 Layout Name:  Mures_Georgiana.brd*
G04 Film Name:    TOP*
G04 File Format:  Gerber RS274X*
G04 File Origin:  Cadence Allegro 17.2-S025*
G04 Origin Date:  Sun Dec 10 16:37:40 2023*
G04 *
G04 Layer:  ETCH/TOP*
G04 Layer:  PIN/TOP*
G04 Layer:  VIA CLASS/TOP*
G04 *
G04 Offset:    (0.00 0.00)*
G04 Mirror:    No*
G04 Mode:      Positive*
G04 Rotation:  0*
G04 FullContactRelief:  No*
G04 UndefLineWidth:     10.00*
G04 ================== end FILE IDENTIFICATION RECORD ====================*
%FSLAX25Y25*MOIN*%
%IR0*IPPOS*OFA0.00000B0.00000*MIA0B0*SFA1.00000B1.00000*%
%ADD11R,.12X.076*%
%ADD13R,.076X.12*%
%ADD17C,.04*%
%ADD10C,.026*%
%ADD12R,.05X.05*%
%ADD15R,.05118X.05118*%
%ADD19R,.036X.05*%
%ADD20R,.05X.036*%
%ADD14R,.048X.076*%
%ADD18R,.076X.048*%
%ADD21R,.07874X.05118*%
%ADD16R,.05118X.07874*%
%ADD22C,.02*%
G75*
%LPD*%
G75*
G54D10*
X8300Y85700D03*
X31100Y28700D03*
Y103600D03*
X54900Y103700D03*
X55100Y133700D03*
X80000Y70800D03*
X88700Y113500D03*
X75700Y95300D03*
X90700Y107400D03*
X92600Y133100D03*
X101000Y55600D03*
X106900Y35900D03*
X105200Y79500D03*
X123500Y113400D03*
X122400Y106400D03*
X108700Y145900D03*
Y128400D03*
X133200Y92500D03*
X141000Y84300D03*
X145800Y70400D03*
G54D20*
X95000Y91400D03*
Y83200D03*
X93000Y121100D03*
X103100Y87300D03*
X101100Y117000D03*
Y125200D03*
X125100Y124700D03*
X117000Y120600D03*
X116900Y145900D03*
X125000Y141800D03*
Y150000D03*
X117000Y128800D03*
G54D11*
X14400Y103600D03*
Y127200D03*
X145600Y32600D03*
Y56200D03*
G54D21*
X120972Y70844D03*
G54D12*
X13200Y28700D03*
X21600D03*
X13200Y38800D03*
X21600D03*
X32000Y121800D03*
Y130200D03*
X44300Y125100D03*
Y116700D03*
X54900Y116800D03*
Y125200D03*
X67300Y141600D03*
Y150000D03*
X45600Y133700D03*
Y142100D03*
X84300Y91300D03*
X71600Y79500D03*
X80000D03*
X91200Y70400D03*
X99600D03*
X84300Y99700D03*
X99500Y98800D03*
X92800Y141500D03*
Y149900D03*
X118400Y35900D03*
X126800D03*
X107900Y98800D03*
X109600Y108100D03*
X101200D03*
G54D22*
G01X13200Y28700D02*
Y38800D01*
G01X27600Y14000D02*
X22300D01*
X20300Y16000D01*
Y23400D01*
X21600Y24700D01*
Y28700D01*
G01D02*
Y38800D01*
G01Y28700D02*
X31100D01*
G01X16700Y50200D02*
X16400Y49900D01*
X12800D01*
X10800Y47900D01*
Y44200D01*
X13200Y41800D01*
Y38800D01*
G01X24600Y50200D02*
X43100D01*
X51200Y58300D01*
G01X38344Y81228D02*
X34285D01*
X34157Y81100D01*
X28600D01*
X24200Y76700D01*
X16100D01*
G01X8300Y85700D02*
X11986D01*
X12041Y85755D01*
X16100D01*
G01X44300Y116700D02*
Y112700D01*
X44400Y112600D01*
Y107500D01*
X38344Y101444D01*
Y81228D01*
G01X31100Y103600D02*
X14400D01*
G01X31100D02*
Y116900D01*
X32000Y117800D01*
Y121800D01*
G01X32100Y150000D02*
X13200D01*
X11200Y148000D01*
Y137000D01*
X14400Y133800D01*
Y127200D01*
G01X32100Y150000D02*
X67300D01*
G01X32000Y130200D02*
Y138100D01*
X32100Y138200D01*
Y142100D01*
G01D02*
X45600D01*
G01X51200Y14000D02*
Y58300D01*
G01D02*
Y63200D01*
G01X71100Y60100D02*
X69100Y58100D01*
X56600D01*
X51500Y63200D01*
X51200D01*
G01X59300Y91400D02*
Y79700D01*
X59200Y79600D01*
Y74300D01*
G01X51200Y63200D02*
Y68900D01*
X51300Y69000D01*
Y74300D01*
G01X67400Y102500D02*
Y96900D01*
X67200Y96700D01*
Y91400D01*
G01D02*
X80200D01*
X80300Y91300D01*
X84300D01*
G01X54900Y116800D02*
Y103700D01*
G01X67400Y133300D02*
Y137500D01*
X67300Y137600D01*
Y141600D01*
G01X44300Y125100D02*
X50800D01*
X50900Y125200D01*
X54900D01*
G01D02*
X63300D01*
G01X67300Y150000D02*
X88700D01*
X88800Y149900D01*
X92800D01*
G01X45600Y133700D02*
X55100D01*
G01X71600Y79500D02*
X71100Y79000D01*
Y60100D01*
G01X91200Y70400D02*
X91400Y70200D01*
Y58600D01*
G01D02*
X89400Y56600D01*
X74800D01*
X71300Y60100D01*
X71100D01*
G01X101000Y55600D02*
X94900D01*
X91900Y58600D01*
X91400D01*
G01X99600Y70400D02*
Y74600D01*
X95000Y79200D01*
Y83200D01*
G01X84300Y91300D02*
X90900D01*
X91000Y91400D01*
X95000D01*
G01X80000Y79500D02*
Y70800D01*
G01X93000Y121100D02*
Y117800D01*
X88700Y113500D01*
G01X71500Y125200D02*
Y110600D01*
G01X75700Y95300D02*
Y98400D01*
X75600Y98500D01*
Y102500D01*
G01X84300Y99700D02*
X88700D01*
X90700Y101700D01*
Y107400D01*
G01X92800Y149900D02*
X113205D01*
X113405Y150100D01*
X120900D01*
X121000Y150000D01*
X125000D01*
G01X92600Y133100D02*
Y137300D01*
X92800Y137500D01*
Y141500D01*
G01D02*
X120700D01*
X121000Y141800D01*
X125000D01*
G01X71500Y125200D02*
X89405D01*
X89505Y125300D01*
X97000D01*
X97100Y125200D01*
X101100D01*
G01X126800Y35900D02*
Y40700D01*
X124800Y42700D01*
X118445D01*
X116445Y44700D01*
Y48600D01*
G01X145600Y32600D02*
X135400D01*
X132100Y35900D01*
X126800D01*
G01X125500Y48600D02*
Y57900D01*
X120972Y62428D01*
Y70844D01*
G01X118400Y35900D02*
X106900D01*
G01X107900Y98800D02*
Y93000D01*
X109900Y91000D01*
Y77400D01*
X106900Y74400D01*
Y35900D01*
G01X103100Y87300D02*
Y81500D01*
X105100Y79500D01*
X105200D01*
G01X133400Y101400D02*
X126600D01*
X124600Y99400D01*
Y92600D01*
X124700Y92500D01*
G01X141000Y84300D02*
X124000D01*
X123900Y84400D01*
X120600D01*
G01X120972Y70844D02*
Y75228D01*
X116400Y79800D01*
Y87895D01*
X116500Y87995D01*
Y92500D01*
G01X116700Y100700D02*
Y92700D01*
X116500Y92500D01*
G01X133500Y113400D02*
X123500D01*
G01X101200Y108100D02*
Y113600D01*
X101100Y113700D01*
Y117000D01*
G01X101200Y108100D02*
Y104500D01*
X99500Y102800D01*
Y98800D01*
G01X117000Y120600D02*
X111800D01*
X109800Y118600D01*
Y108300D01*
X109600Y108100D01*
G01D02*
X114700D01*
X116700Y106100D01*
Y100700D01*
G01D02*
X122400Y106400D01*
G01X125100Y124700D02*
X125300Y124900D01*
X130800D01*
X132800Y126900D01*
Y148000D01*
X130800Y150000D01*
X125000D01*
G01X116900Y145900D02*
X108700D01*
G01Y128400D02*
X112600D01*
X113000Y128800D01*
X117000D01*
G01X145800Y70400D02*
Y61700D01*
X145600Y61500D01*
Y56200D01*
G01X133200Y92500D02*
Y95900D01*
X133400Y96100D01*
Y101400D01*
G01X141300D02*
Y108000D01*
X141400Y108100D01*
Y113400D01*
G54D13*
X27600Y14000D03*
X51200D03*
G54D14*
X24600Y50200D03*
X16700D03*
X59300Y91400D03*
X67200D03*
X51300Y74300D03*
X59200D03*
X141400Y113400D03*
X133500D03*
X133400Y101400D03*
X141300D03*
G54D15*
X16100Y85755D03*
Y76700D03*
X116445Y48600D03*
X125500D03*
G54D16*
X38344Y81228D03*
G54D17*
X20000Y140000D03*
X140000Y20000D03*
G54D18*
X32100Y142100D03*
Y150000D03*
G54D19*
X63300Y125200D03*
X67400Y102500D03*
Y133300D03*
X71500Y125200D03*
Y110600D03*
X75600Y102500D03*
X120600Y84400D03*
X124700Y92500D03*
X116500D03*
M02*
